<svg xmlns="http://www.w3.org/2000/svg" viewBox="0 0 131.71 59.06"><defs><style>.cls-1{fill:#231f20;}</style></defs><g id="Layer_2" data-name="Layer 2"><g id="leaves"><path class="cls-1" d="M131.71,36.3a4.56,4.56,0,0,1-1.3-1.12.53.53,0,0,0-.32-.12s-6.57.19-13.56.18c-2.79-1.85-10.88-6.12-14.4-9-4.44-3.62-11.2-10-11.76-14.78S85.71,0,85.71,0c.11,2.61-7.38,11.73-3.7,17.36,4.18,6.39,10.2,9.55,14.84,11.6,3.3,1.47,12,4.68,17,6.26-5.33-.06-10.44-.26-12.59-.79C70.77,27,51.33,2.11,35.2,2.81s-21,10-23.37,11.31S-.49,30.15,0,30c7.83-4.91,26-13.22,35.19-9.89,24,8.72,35.22,14.83,61,16.65l-5.65,1c-6.24,1.1-22.29-5.27-29.29-5.39S44.67,39.7,42.06,44.94s-2.5,13.57-2.59,14.12c.19-1.4,9.61-11,18.82-15.45,9.61-4.67,25.59-1.81,30.38-2.17C92,41.2,97.08,38.58,99.92,37l1.32.07C105.52,37.24,131.71,36.3,131.71,36.3Z"/></g></g></svg>