<svg xmlns="http://www.w3.org/2000/svg" viewBox="0 0 426.87 345.58"><g id="Layer_2" data-name="Layer 2"><g id="Layer_1-2" data-name="Layer 1"><path d="M213.44,345.58A120.22,120.22,0,1,1,333.65,225.36,120.36,120.36,0,0,1,213.44,345.58Zm0-233.43A113.22,113.22,0,1,0,326.65,225.36,113.35,113.35,0,0,0,213.44,112.15Z"/><path d="M213.44,313.38a88,88,0,1,1,88-88A88.11,88.11,0,0,1,213.44,313.38Zm0-172a84,84,0,1,0,84,84A84.11,84.11,0,0,0,213.44,141.34Z"/><path d="M354.15,118.7A30.75,30.75,0,1,1,384.89,88,30.78,30.78,0,0,1,354.15,118.7Zm0-54.49A23.75,23.75,0,1,0,377.89,88,23.77,23.77,0,0,0,354.15,64.21Z"/><path d="M320.91,67.13H7V44.83H18.16V31.44A1.43,1.43,0,0,1,19.59,30H43.44a1.43,1.43,0,0,1,1.43,1.44V44.83H63V31.44A1.43,1.43,0,0,1,64.42,30H88.26a1.43,1.43,0,0,1,1.43,1.44V44.83h39.74L161.2,7H265.69l32.15,37.83H379V31.44A1.43,1.43,0,0,1,380.44,30h23.84a1.43,1.43,0,0,1,1.44,1.44V44.83h17.65v-7H412.72V31.44A8.44,8.44,0,0,0,404.28,23H380.44A8.44,8.44,0,0,0,372,31.44v6.39H301.08L268.93,0h-111L126.16,37.83H96.69V31.44A8.44,8.44,0,0,0,88.26,23H64.42A8.44,8.44,0,0,0,56,31.44v6.39H51.87V31.44A8.44,8.44,0,0,0,43.44,23H19.59a8.44,8.44,0,0,0-8.43,8.44v6.39H0v36.3H317.43A39,39,0,0,1,320.91,67.13Z"/><path d="M387.39,67.13a39,39,0,0,1,3.48,7h29v10.3l-26.65-.15c.11,1.21.17,2.43.17,3.67s-.05,2.23-.15,3.33l33.63.19V67.13Z"/><path d="M96.7,284.14H7V89.05l308,1.78c-.07-1-.11-1.91-.11-2.88a40.16,40.16,0,0,1,.21-4.12L0,82V291.14H100.51C99.18,288.85,97.9,286.51,96.7,284.14Z"/><path d="M419.87,112.31V284.14h-89.7c-1.2,2.37-2.47,4.71-3.81,7H426.87V112.31Z"/><path d="M123.73,320.35H7V304.53H109.49c-1.73-2.28-3.4-4.61-5-7H0v29.82H131.77Q127.6,324,123.73,320.35Z"/><path d="M317.38,304.53H419.87v15.82H303.15q-3.88,3.66-8,7H426.87V297.53H322.37Q320,301.12,317.38,304.53Z"/></g></g></svg>