<svg xmlns="http://www.w3.org/2000/svg" viewBox="0 0 367.76 320.35"><g id="Layer_2" data-name="Layer 2"><g id="Layer_3" data-name="Layer 3"><path d="M148.17,204.91,22.74,144.45V0H345V144.45L223.1,203.23l-1.73-2.34a43.74,43.74,0,0,0-71.51,1.51ZM29.74,140.06l116.09,56a50.73,50.73,0,0,1,79.38-1.58L338,140.06V7H29.74Z"/><path d="M0,315.36V137.3l145.74,72.52-1,2.9a43.68,43.68,0,0,0,.62,29.91l1.17,3ZM7,148.6V304.28l130.76-62.19a50.73,50.73,0,0,1-.54-28.69Z"/><path d="M367.76,315.2,225.35,246.53l1.25-3.05a43.72,43.72,0,0,0-.35-34.15l-1.35-3.09,142.86-68.86ZM234.24,243.05l126.52,61V148.52L233.91,209.67a50.76,50.76,0,0,1,.33,33.38Z"/><path d="M358.53,320.35H11.08l139.42-68,1.75,2.15a43.72,43.72,0,0,0,68.19-.49l1.77-2.24Zm-317.14-7H329.06l-105-52.84a50.72,50.72,0,0,1-75.44.49Z"/><path d="M186,263.67a36.36,36.36,0,1,1,36.35-36.36A36.4,36.4,0,0,1,186,263.67ZM186,195a32.36,32.36,0,1,0,32.35,32.36A32.39,32.39,0,0,0,186,195Z"/><path d="M180.34,211.31l-.22-.33c-.1-.16-.21-.34-.32-.54l-.33-.54a1.51,1.51,0,0,0-.24-.32.05.05,0,0,0,0-.05l-.23,0a5.29,5.29,0,0,0-.55,0l-1,0-.42-.11a6.45,6.45,0,0,1-.62-.21,5,5,0,0,1-.57-.28c-.17-.11-.26-.22-.26-.33a.61.61,0,0,1,.23-.53l.57-.41a1.06,1.06,0,0,1,.56-.2l1,.06.37-.23.27-.15a.44.44,0,0,1,.19-.07,10,10,0,0,1,1.29-.19l1.65-.11c.59,0,1.16,0,1.72,0h1.43a7.7,7.7,0,0,1,1.24.07,2.76,2.76,0,0,1,.86.32l1.38-.09c.44,0,.88-.05,1.31-.05s.76,0,1.14,0l1.08.06a2.27,2.27,0,0,0,.71.27c.24,0,.49.08.73.1l.74.07a4.27,4.27,0,0,1,.71.15l3.74,1.87a.58.58,0,0,0,.21.08,3.34,3.34,0,0,1,.4.1l.4.09a.58.58,0,0,1,.21.08,1.5,1.5,0,0,1,.55.29,1.88,1.88,0,0,1,.37.43c.11.16.2.32.3.48a2.94,2.94,0,0,0,.34.47,30.5,30.5,0,0,1,2,2.47,8,8,0,0,1,1.32,2.92s0,.11,0,.22,0,.24,0,.39,0,.27,0,.39,0,.2.06.21a2,2,0,0,0,.27.63c.12.19.24.38.37.57a5.21,5.21,0,0,1,.31.56,1.69,1.69,0,0,1,.13.66,5,5,0,0,1-.05.58,2.12,2.12,0,0,1-.1.49l.15.33a.79.79,0,0,0,.14.27c.07.32.13.64.18,1a6,6,0,0,1,.07.95,6.78,6.78,0,0,1-.07,1q-.08.51-.18,1a3.72,3.72,0,0,1,.07.46,3.11,3.11,0,0,0,0,.32,1.88,1.88,0,0,1,0,.19v0a4.72,4.72,0,0,1-.21,1.38c-.15.46-.32.92-.51,1.36s-.41.88-.64,1.32-.43.85-.6,1.25l-.34.88a9,9,0,0,1-.62,1.31,14.68,14.68,0,0,1-.89,1.38c-.34.45-.67.89-1,1.32s-.66.82-1,1.17l-2,2.41a9.41,9.41,0,0,1-2.41,2.07.84.84,0,0,1-.37.13,2.35,2.35,0,0,1-.36.07L193,244.31a5.62,5.62,0,0,1-1.73.46,15.34,15.34,0,0,0-1.81.28l-1.28.62-.34,0-.59.06-.58.07-.3,0c-1.19.13-2.42.31-3.67.54a21.51,21.51,0,0,1-3.87.34l-.77,0-1.13-.05-1.12-.06-.7,0a2.1,2.1,0,0,0-.86-.4,7.57,7.57,0,0,0-.87-.05,5.17,5.17,0,0,0-1.19.13c-.38.08-.75.17-1.11.28s-.7.2-1.05.28a4,4,0,0,1-1,.13,2,2,0,0,1-.72-.16,3.71,3.71,0,0,1-.79-.41,2.65,2.65,0,0,1-.65-.59,1.19,1.19,0,0,1-.27-.74v-.28a1.75,1.75,0,0,1,0-.4,1.89,1.89,0,0,1,.11-.36.31.31,0,0,1,.21-.18,6.71,6.71,0,0,1,2.9-1.19,3.45,3.45,0,0,0,1.87-.85,5.71,5.71,0,0,0,1.22-1.63,12.17,12.17,0,0,0,.79-2q.32-1.07.6-2c.15-.43.32-.89.52-1.37a4.77,4.77,0,0,0,.36-1.43,2.52,2.52,0,0,0,.11-.67c0-.2,0-.39,0-.57a1.88,1.88,0,0,1,.12-.55,1.7,1.7,0,0,1,.41-.62,13,13,0,0,1,.3-2.09,11.73,11.73,0,0,1,.61-2,3.11,3.11,0,0,1,.31-.9c.15-.29.3-.59.47-.89s.3-.61.44-.91a3.37,3.37,0,0,0,.25-.93c0-.42.06-.86.07-1.31s0-.91.06-1.36.07-.9.14-1.35a5.82,5.82,0,0,1,.33-1.29c.15-.51.31-1,.49-1.51s.35-1,.51-1.52.29-1,.4-1.57a9.16,9.16,0,0,0,.16-1.66Zm-1.28,29.32a1.26,1.26,0,0,1,.14.28c.08.17.17.38.27.62s.21.5.31.74l.27.62a.89.89,0,0,0,.41.46,6.27,6.27,0,0,0,1.6.66l.8.22a2.91,2.91,0,0,1,.42.08.27.27,0,0,0,.12,0,.51.51,0,0,0,.22,0,2.52,2.52,0,0,0,1-.23,5.8,5.8,0,0,0,1-.56c.32-.23.63-.47.92-.71a6.46,6.46,0,0,1,.86-.63l.22,0a3,3,0,0,0,.34-.07l.34-.08a.8.8,0,0,1,.21,0c.26-.19.56-.42.88-.7s.64-.56,1-.86.63-.6.91-.9.53-.56.74-.8a.64.64,0,0,0,.17-.35c0-.13,0-.26,0-.41a1.85,1.85,0,0,1,.07-.41.64.64,0,0,1,.26-.34,3.39,3.39,0,0,0,.73-.49,2.47,2.47,0,0,0,.42-.51,3.29,3.29,0,0,0,.26-.6,5.77,5.77,0,0,1,.34-.75,5.4,5.4,0,0,0,.44-.63l.63-1c.21-.33.43-.64.64-.93a3.12,3.12,0,0,1,.48-.58c.26-.78.52-1.6.76-2.47a15.32,15.32,0,0,0,.51-2.49.94.94,0,0,1,.16-.43c.08-.13.17-.26.26-.38s.16-.25.22-.37a.75.75,0,0,0,.1-.38c.08-.57.14-1.13.2-1.68a14.28,14.28,0,0,0,.09-1.56,9.37,9.37,0,0,0-.09-1.33c-.06-.42-.12-.81-.2-1.19a4.21,4.21,0,0,1-.15-.44c-.07-.2-.15-.42-.25-.67s-.18-.55-.28-.82-.17-.47-.23-.62a2.68,2.68,0,0,1-.08-.31c0-.08,0-.16-.06-.26v-1.08c0-.05-.16-.28-.38-.66l-.69-1.25c-.25-.45-.48-.85-.7-1.21a3.7,3.7,0,0,0-.38-.56,5.73,5.73,0,0,0-1.09-1.41,11.85,11.85,0,0,0-1.27-1,1.38,1.38,0,0,0-.82-.34h-1a6.24,6.24,0,0,1-.68-.24l-.75-.33-.78-.3a2.62,2.62,0,0,0-.74-.13,1.11,1.11,0,0,0-.72.19.84.84,0,0,0-.29.45,3.48,3.48,0,0,0-.08.61,1.81,1.81,0,0,1-.13.63,1.12,1.12,0,0,1-.13.39l-.15.34c0,.06-.05.18-.09.37s-.08.4-.13.63-.08.43-.11.63a3.05,3.05,0,0,0,0,.39,1,1,0,0,0,0,.34c0,.13,0,.28,0,.46s0,.29,0,.33a.8.8,0,0,0-.12.33,2.77,2.77,0,0,0,0,.41,1.17,1.17,0,0,0-.12.21l-.18.4c-.07.14-.12.28-.17.41a1,1,0,0,0-.07.25v1.76a.36.36,0,0,1-.09.14c-.05.08-.12.16-.19.26l-.22.25a.58.58,0,0,0-.1.15s0,.08,0,.12l-.06.13a.44.44,0,0,0-.08.17c-.38,1.59-.79,3.13-1.24,4.64s-.83,3.05-1.18,4.63l-.73,1.82a4.58,4.58,0,0,0-.12.71c0,.22,0,.45,0,.68s0,.45,0,.68a2.58,2.58,0,0,1-.19.68q-.28.85-.54,1.47c-.17.42-.32.82-.47,1.22a11.74,11.74,0,0,0-.61,2.89,2.23,2.23,0,0,1-.32,1,1.78,1.78,0,0,0-.27.95Z"/><path d="M302.59,70.21c-2.95,2.69-7.32,3.68-11.08,4.66a88,88,0,0,1-12.69,2.34,139.83,139.83,0,0,1-25.88.13c-17.7-1.36-35.15-4.84-52.85-6.15a144.76,144.76,0,0,0-26.74.3,8.76,8.76,0,0,0-5.14-6.15c-3.8-1.62-8.38-1-12.38-.58a92.1,92.1,0,0,0-24.9,6.07c-2.81,1.12-5.56,2.38-8.25,3.75a12.59,12.59,0,0,0-1.08-4.78,2.53,2.53,0,0,0-2.82-1.15,51.37,51.37,0,0,0-11.27,3.25c1.75-2.51,3.47-5,4-8.15,1.09-6.09-2.28-12-7.52-15-6.27-3.64-13.89-2.15-20.36.09-5.48,1.89-11.51,4.66-14,10.31-2.34,5.39-.93,13.13,5.18,15.23a2.5,2.5,0,0,0,1.33-4.82,3.58,3.58,0,0,1-1.32-.93,5.29,5.29,0,0,1-1.05-2.27,8.54,8.54,0,0,1,.29-5C75.85,57.05,81,55,85,53.62c5-1.72,11.22-3.48,16.2-.76,3.61,2,6.4,6,5.38,10.25a20.16,20.16,0,0,1-3.51,6.59,31.63,31.63,0,0,0-4.18,7.46c-.74,2.09,1.89,3.91,3.67,2.83a49.16,49.16,0,0,1,15.16-6.06,6.81,6.81,0,0,1-.93,4.26,2.52,2.52,0,0,0,3.42,3.42c12.61-7.4,27.26-12,42-12.26,1.62,0,3.52,0,4.89,1a3.18,3.18,0,0,1,1.39,3.29c-.53,2,1.25,3.33,3.08,3.07,17.6-2.46,35.49-.12,52.95,2.26,17.62,2.4,35.48,5.12,53.29,3.36a97.14,97.14,0,0,0,14.87-2.57c4.75-1.23,9.79-2.63,13.49-6C308.5,71.57,305,68,302.59,70.21Z"/><path d="M279.39,119.09l-15.84,7.28-8.15,3.75a18.81,18.81,0,0,1-7,2.14,31.37,31.37,0,0,1-8.27-1.25q-4-1-8-1.79-8.31-1.71-16.71-2.89a273.29,273.29,0,0,0-33.92-2.68c-9.72-.15-19.93.79-29.25-2.58a31.63,31.63,0,0,1-7.08-3.81c-2.23-1.52-4.54-2.94-7.29-3.25a9,9,0,0,0-7.77,3.16,6.59,6.59,0,0,0-3.88-.29c-2.63.56-5.22,2-7.7,3l-5,2.06c-.13-3.42-1-6.89-4.1-8.74a8,8,0,0,0-8.12.25c-2.46,1.43-4.15,3.82-5.75,6.11a2.51,2.51,0,0,0,.9,3.42,2.55,2.55,0,0,0,3.42-.9c1.29-1.84,4.6-6.63,7.25-4.41,1.93,1.62,1.5,5.63,1.3,8a2.5,2.5,0,0,0,3.16,2.41l11.22-4.59c1.44-.59,3.26-1.7,4.84-1.81a11.16,11.16,0,0,0-.37,1.79c-.25,2.06,2.26,2.88,3.76,2.16a4.17,4.17,0,0,0,2.11-4.37,5.81,5.81,0,0,1,1.77-1.69,4.74,4.74,0,0,1,4.86.16c2.05,1.08,3.85,2.58,5.87,3.73a33.73,33.73,0,0,0,6.68,2.87c9.4,3,19.5,2.15,29.21,2.3a263.21,263.21,0,0,1,32.83,2.53q8.26,1.19,16.47,2.86c2.69.56,5.38,1.15,8.05,1.79a44.57,44.57,0,0,0,8.19,1.42c6.16.29,11.85-3.24,17.27-5.73l17.65-8.11a2.51,2.51,0,0,0,.9-3.42A2.57,2.57,0,0,0,279.39,119.09Zm-151.29,2.6h0Zm0,0Z"/></g></g></svg>