<svg xmlns="http://www.w3.org/2000/svg" viewBox="0 0 551.33 623.65"><defs><style>.cls-1{fill:#231f20;}.cls-2{fill:none;stroke:#231f20;stroke-miterlimit:10;stroke-width:2.5px;}</style></defs><g id="Layer_2" data-name="Layer 2"><g id="outline"><path class="cls-1" d="M355.21,126.43a76,76,0,0,1,9.25,4l.27.16c2.52,1.59,6.15,3.3,9.15,2.37a6.69,6.69,0,0,0,3.06-2.12c-6.89-2.89-13.21-5.2-16.78-5.16A18.23,18.23,0,0,0,355.21,126.43Z"/><path class="cls-1" d="M362.25,107.22a68.86,68.86,0,0,1,7.08,1.27l0-.35c-.43-6.18-5.22-9.76-14.21-10.64H355c-1.85,0-5.93,4.32-9,10.69a23.07,23.07,0,0,1,8.76-1.5A64,64,0,0,1,362.25,107.22Zm-7.14-7.2c7.05.74,9.81,3.13,10.92,5.24-1.2-.21-2.36-.38-3.48-.52a65.49,65.49,0,0,0-7.8-.55,30.78,30.78,0,0,0-3.69.2A15.19,15.19,0,0,1,355.11,100Z"/><path class="cls-1" d="M462.18,344.93a11.55,11.55,0,0,1,7.53-2.92,10.44,10.44,0,0,0,2.14-.21c-5.5-1.62-10.79-2.69-13.07-2.62a8.93,8.93,0,0,0,1,2.2Z"/><path class="cls-1" d="M542.47,192.62l-7.41-2.19-.88,7.68A12.35,12.35,0,0,1,533,202.6a8,8,0,0,1-2.18-.95c-5.24-18.62-22.87-36.31-51-34.55-16.27,1-20.66,5.61-25.07,12l-.74,1.06a19.27,19.27,0,0,0-3.13-2.81c-7.44-5.39-21.48-2.13-25.6-1l-24.13,6.58,24.28,6a35.11,35.11,0,0,1,8.87,3.5l-.37.23c-3.56,2.17-8.89,5.42-12.05,12.41-12,8.6-19.27,19.85-20.53,31.74-1.44,13.66,4.65,27.66,18.12,41.62l1.2,1.25-.35.29c-5.68,4.58-14.62,16.92-7.83,30.89,4.87,10,17.42,12.35,27.56,14.23l1.08.2a25.76,25.76,0,0,0-1.45,3.12,13.81,13.81,0,0,0,.58,12.11c3.94,7.09,13.19,9.17,15,9.51h0a47.37,47.37,0,0,0-4.24,14L448.5,383l13.6-13.59.4-.39,9.7,11.4a18.64,18.64,0,0,0,7.76,5.83c-.49.68-1,1.34-1.58,2-6.94,8-13.86,12-21.15,12.28l-.9,0c-16.15,0-33.87-17.27-52.66-35.57-4.72-4.61-9.61-9.37-14.54-13.91-7-15.76-18.59-35.36-35.39-59.9-1.75-2.55-3.48-5.14-5.17-7.72A33.32,33.32,0,0,0,367,259.11l1.69-13.45-11.54,7.1c-.09.06-8.83,5.27-17.83,3.35-.86-.34-1.93-2.69-2.85-6.56l11.93-9.39c3.58-2.81,21.43-17.59,21.43-32.14,0-20.2-4.9-34.53-15-43.81a40.66,40.66,0,0,1-9.76-13.57l1.33-1.22a7.78,7.78,0,0,1,6.39,1.16,38.22,38.22,0,0,1,6,8l.38,2.95,2.65,1.63c4.39,2.7,12.37,2.31,19,1.34,0,.17.06.37.08.58l.94,9.85,8.66-4.77a11.72,11.72,0,0,0,3.55-3A30.22,30.22,0,0,0,404.9,170l17.1,1.56-11.78-12.49a50.86,50.86,0,0,1-5.72-6.9,28.22,28.22,0,0,0,4.63-6.23,30.74,30.74,0,0,0,6.57.8c12.46,0,17.67-10.7,21.47-18.53,2-4.07,3.85-7.91,6-9.53,2-1.49,2.78-1.4,6.08-1,4.57.54,11.47,1.37,22.43-3.92l6.46-3.12-3.75-6.13C469,95.62,460.83,89.64,451.5,87.7a32.42,32.42,0,0,0-25.13,5,28.07,28.07,0,0,0-4.64,4.06A35.47,35.47,0,0,0,422,83.55c2.63-4.23,6.08-11.57,4.32-18.81l-.46-1.89-1.42-1.32c-4.32-4.05-13.76-4.68-21.12-4.48a110.43,110.43,0,0,0-25.82-7.18,13.8,13.8,0,0,0-.07-9.93c-1.63-3.93-5.88-6.58-14.7-9.15A146.44,146.44,0,0,0,345.07,27a78,78,0,0,0-8.88-1c-5.63-3.69-9.58-7.26-10.76-8.75A20.8,20.8,0,0,1,330.65,12L345.32,1.63,327.4.22c-8.51-.66-23.25-.39-26.5,9a26.74,26.74,0,0,0-.83,3,83.17,83.17,0,0,0-12.56-4.84c-11.92-3.24-25.34-6.14-33.84.47s-9.1,20.38-9.15,23.09L244.45,35c-2,.65-4.12,1.4-6.28,2.23L234,38.84l.06,4.52A50.82,50.82,0,0,0,244.92,72h0c-11.86,0-23.59-8.1-23.7-8.18l-11.63-8.25L211,69.73c.41,4.13,2.89,25.13,11.76,32.62a63.38,63.38,0,0,0,5.58,4.24L226.65,114c-1.31,5.89-.82,10.82,1.45,14.73-10.91,6.61-16,16.5-17.07,23.88-1.69,11.44,8.58,18.47,9,18.76l1.78,1.19c-2.61-1.07-5.26-2.29-7.8-3.45-5.86-2.69-11.4-5.23-16.35-6.09l-8.11-1.42.49,8c-1.25.37-4.69.69-11.21-.76a63.32,63.32,0,0,1-10-6.65,55,55,0,0,1-4.31-12.7l-3-15.44-8.31,12.29c-2.77-3.36-5.37-6.72-7.72-9.77-6.24-8.07-11.23-14.53-16.77-18.22-1.78-7.78-2-10.91-2-11.89a35.22,35.22,0,0,1,4.37-3c4.16-2.57,8.87-5.48,9.9-10.64a12.28,12.28,0,0,0-.91-7.53,14.43,14.43,0,0,0,5.61-8c2.07-8.26-4-15.79-4.7-16.61L130.09,47.56l-.53,16.92a7.68,7.68,0,0,1-1.35,3,10.54,10.54,0,0,1-3.45,2c-2.22-.65-5.87-.86-10.37,2.06a14,14,0,0,0-3.26,2.83c.66-1.18,1.27-2.25,1.68-3,2.83-4.91,5.27-9.16,5.81-12.5a12.05,12.05,0,0,0-3.41-10.68A24.22,24.22,0,0,0,113.38,35c-4.77-9.89-18.7-7.79-20.28-7.52l-22,3.82,20.48,8.54a5,5,0,0,1,1.75,2A10.58,10.58,0,0,0,85,46.15C80.14,53,82.79,58.9,84.54,62.81a15.47,15.47,0,0,1,1.78,5.85,10,10,0,0,1-1.57,3.75,9.3,9.3,0,0,1-2.48-1.35,14.37,14.37,0,0,1-.71-2.36c-.79-3.11-2.1-8.33-7.69-10.75a15.59,15.59,0,0,0-8-1.32C62,52.94,56.55,49,51.06,49c-8,0-15.15,8.67-17.16,11.31l-17,22.44L42,70a21.46,21.46,0,0,1,5.05-1.78,30.09,30.09,0,0,1,2.57,4C47.42,78,48.27,83.55,52,87.35c3.56,3.64,8.23,4,12,4.31,2.89.22,5.17.4,6.55,1.71,2.69,2.56,6.16,8.25,8.6,12.7-5.5-3-13.67-5.81-20.74,1.22-3.26,3.24-3.81,8.45-1.61,15.14-.23.14-.48.29-.76.44a2.81,2.81,0,0,1-2.13.19l-15.32-7.85L45,131.32c.53,1.34,3.53,8.17,10,10.69a13.5,13.5,0,0,0,11-.59c.69-.33,1.41-.71,2.14-1.13,2.82,2.6,6.78,5.06,11.43,4.76,6-.4,8.9-4.86,10.66-7.53.46-.7.82-1.22,1.07-1.54A15.2,15.2,0,0,1,98,137a27.88,27.88,0,0,0,.49,4.52l.18.67c.2.61.41,1.23.62,1.85a18.12,18.12,0,0,1,1.17,4.4,35.43,35.43,0,0,1-5.17,13.36,4.18,4.18,0,0,1-4.29,1.7l-9.9-2.53L83,171c.79,4.15,4.65,11.78,13.7,12.72a33.91,33.91,0,0,0-2.88,11.52c-.78,16.15,13.15,24.63,13.74,25l7.16,4.25A70.52,70.52,0,0,0,110.24,243l-.31,4.27a99.7,99.7,0,0,1-12.1-2.66A23.72,23.72,0,0,1,95.36,243a35,35,0,0,1,.41-5.26c.61-4.85,1.3-10.34-2.08-14.38a12.26,12.26,0,0,0-6.44-4A14.48,14.48,0,0,0,84.58,210c-5-6.64-14.13-6.78-15.89-6.75l-17.1.28,12.85,11a7.83,7.83,0,0,1,1.49,2.93,10.48,10.48,0,0,1-.59,4c-1.89,1.32-4.35,4-4.89,9.36a13.65,13.65,0,0,0,.16,4.32c-.51-1.26-1-2.41-1.25-3.16-2-5.28-3.83-9.84-6.09-12.37a12,12,0,0,0-10.45-4,24.22,24.22,0,0,0-11.51-6.9c-10.7-2.49-17.79,9.68-18.56,11.07L1.83,239.32l19.55-10.63a4.9,4.9,0,0,1,2.73-.12,10.61,10.61,0,0,0-1.86,9.19c2.26,8.09,8.52,9.73,12.67,10.82a15.75,15.75,0,0,1,5.67,2.28,10.28,10.28,0,0,1,1.94,3.58,9.85,9.85,0,0,1-2.61,1.09,16.65,16.65,0,0,1-2.28-.93c-2.92-1.34-7.81-3.59-13.19-.75a15.59,15.59,0,0,0-6.07,5.41C13.06,260,6.53,261.72,3.14,266c-5,6.24-2.75,17.24-1.95,20.46L8,314l5.84-27.76a20.72,20.72,0,0,1,1.78-5,29.16,29.16,0,0,1,4.73.52c3.09,5.32,8,8.16,13.25,7.64,5.08-.49,8.29-3.9,10.87-6.64,2-2.11,3.56-3.77,5.45-4,3.7-.5,10.21.35,15.29,1.26-5.76,2.43-13.11,7-12.07,16.93.48,4.57,4.2,8.26,10.79,10.75,0,.26-.07.55-.13.86a2.8,2.8,0,0,1-1.19,1.78l-15.72,7,16.59,5.09c.84.26,8.44,2.44,14.6-1.1a13.49,13.49,0,0,0,6.43-8.92c.17-.75.33-1.54.46-2.37,3.8-.57,8.2-2.11,10.88-5.93a13.91,13.91,0,0,0,.82-1.35l6,4.81c1.15.92,11.57,8.95,22.74,7.39a20.07,20.07,0,0,0,4-1l-1.55,3.44,12-2.1c5.77-1,9.92-3.31,12.31-6.74a29.24,29.24,0,0,0,4.3,6.11c9.69,10.75,32.78,11.87,37.31,12l21.61.54-14.11-9.84c2.4-.13,14-1.32,19.81-11.85.94,1.75,1.95,3.45,3,5.08a36.39,36.39,0,0,0,16.21,13.54l-2.78,9,10.28-1.6a61.59,61.59,0,0,0,9.52-2.42c4.21.78,8.48,1.37,13,2,16.77,2.32,34.08,4.72,46.27,17.25a64.53,64.53,0,0,1-24,6.44c-11.63.63-33.56,0-49.81-11l-.77-.45c-10.47-5.19-31.51,7.41-39.4,15.94-9.24,5.24-13,6.42-14.11,6.68a17.09,17.09,0,0,1-1.48-7.07V343.23l-11.07,10.91c-7,6.9-9.78,13.89-8.26,20.78a17.58,17.58,0,0,0,2.27,5.54l-7.38-2.38,5.36,13c2.56,6.19,5.3,9.85,8.81,11.57-4.52,7.48-8.82,17.58-7.47,27.5.92,6.8,3.7,12,8.25,15.47a21.15,21.15,0,0,0,15,4l8.41-1.19-2.9-6.79a41,41,0,0,0,13.78,7.65c-2.82,11.66-13.46,23.62-32.41,36.49-24.14.13-29.17-1.79-29.72-2-.51-.92.08-5.11.34-6.92.67-4.64,1.42-9.91-1.17-14.32a14.17,14.17,0,0,0-12.28-7.11c-2.32-3.6-6.59-8.79-12.84-10.91-9.46-3.21-23.07,2.82-25.7,4.06L73.62,460.09l27.11.8a58.85,58.85,0,0,1,12.2,1.54c-5.74,2.23-11.23,7.4-10.53,16a15.86,15.86,0,0,0,2.71,7.76,14.63,14.63,0,0,0-4.69,3.84,37.83,37.83,0,0,0-16.52,2.23c-13.59,5-12.67,28.11-12.06,35.08l2,22.78,10.3-20.41c2.63-5.21,7.14-11.9,9.41-13.19a5.5,5.5,0,0,1,3.37,0c-.3,5.68,1.85,10.53,6.08,13.54l.13.09a18.91,18.91,0,0,0-4.55,5.78c-4.38,8.52,2.66,23.85,5.89,30.05l14.35,27.52-2.1-31c-.44-6.44.22-11.81.71-13.21l.25-.15a14.68,14.68,0,0,0,14.6,7c10.68-1.2,16.27-13.33,18-17.75,3.64-3.81,11.9-5.32,20.54-6.06a22.44,22.44,0,0,0-3.74,6.44,11.64,11.64,0,0,0,.83,9.43,15.1,15.1,0,0,0,5.51,5.46,32.15,32.15,0,0,0-.2,5.64c.67,13,17,18.82,17.71,19.06l19.61,6.82-12.22-16.78c-3.17-4.36-5.59-9.22-5.68-10.31a9.33,9.33,0,0,1,1.72-3.66,11.25,11.25,0,0,0,8.47-6.05c2.72-5.3,2.5-15.11-1.87-21.72l.74-1.23,1.06-1.8,11.91-11.18c.27,1.29.41,3.73-.42,8.13L211,537.66l13.63-10.75c5.24-4.13,8.54-9.1,9.85-14.8a42.86,42.86,0,0,0,7.77.7c26.18,0,34-17.6,34.32-18.35L281.87,482l-9.57,2.68a26.91,26.91,0,0,0,8.09-8.16l4.17,10.27c3.88,9.52,18.35,14,28.82,16l-7.65,9.12,13.49.34a19,19,0,0,0,14.24-5.6c3.46,6.83,9.76,13.69,24.17,15.23l2.11.22a45.91,45.91,0,0,0-9.15.53c-13,2-19.1,23.87-20.67,30.51l-5.83,24.71,17-18.87c5.66-6.29,11.55-11.16,13.33-12a12.43,12.43,0,0,1,1.67.29,12.89,12.89,0,0,0,1,3.74,16.39,16.39,0,0,0-2.25,1.42c-4,3-5.56,8.18-4.49,14.91a21.29,21.29,0,0,0-9.79,6.75c-5.58,7.18-2.2,22.09-.49,28.17l5.45,19.37,6.91-18.9c1.91-5.24,5.44-10.84,7.39-11.76a11.19,11.19,0,0,1,6.29-.69c2.38,2.34,8.61,6.94,18.19,3.44,6.77-2.48,9.22-8.32,11.18-13,.24-.55.46-1.09.69-1.61.13.31.27.63.42.94a16.37,16.37,0,0,0,9.17,8.35,33.22,33.22,0,0,0,1.09,7.22c2.6,10.16,13.9,16.59,16.14,17.77l19.34,10.23-10.62-19.13c-3-5.42-5-10.84-5-12a10.64,10.64,0,0,1,1.48-3.58c4-.33,12-2.13,14.48-11.05,2.1-7.46,0-14.45-2.07-21.22a11,11,0,0,0,1.25,1,56.91,56.91,0,0,0,2,6.5,14.11,14.11,0,0,0,8.71,8.64c8.84,3,19.35-2.87,21.37-4.08l20.37-12.28-23.79.21a23.7,23.7,0,0,1-6.87-.91,9,9,0,0,1,0-1c2.38-1.48,5.22-4.24,7.27-9.37,3.36-8.39.83-13.22-2.38-19.34-.7-1.33-1.49-2.84-2.36-4.61-.59-1.23-1.53-4.08-1.9-10.26a20.43,20.43,0,0,1,3.37,3.56l21.45,28.13L479,508.91a35.61,35.61,0,0,0-4.54-9.87c7.62-5.93,14.34-15.9,20.49-30.36L505.86,443l-21.13,18.18c-5.59,4.8-10.54,7-14.71,6.57a12.87,12.87,0,0,1-6.86-3.25c3.34-4,5.26-9.27,5.71-15.85l12.6-10.17c1.35-1.09,13.22-11,13.22-23.25,0-.51,0-1-.05-1.55.73-.67,1.46-1.37,2.17-2.09,8.29,1.91,15.35-1.73,20-10.36L523,389.73l-12.92,2-.46.06a50,50,0,0,0,2.34-20,20.1,20.1,0,0,1,5.4-5.06c8.65-5.5,10.81-17.91,8.45-26.8-1.83-6.86-6.13-11.1-11.53-11.35l-10.18-.41,3.91,9.43a4.66,4.66,0,0,1-.48,4.29,21.82,21.82,0,0,1-3,3.07c-1-2.18-2.08-4.41-3.25-6.65-.89-6.53-.76-9.6-.6-10.86a19.61,19.61,0,0,1,4.78-10.24l6.49-6.24-8-4.2a16.3,16.3,0,0,0-20.23,4.5c-8.45-11.18-17.53-21.5-25.44-30.25-2.68-6.52-3.37-10.85-3.31-11.6a5,5,0,0,1,2-3.26l9.26-5.38L457,255.11c-1.32-.83-8.26-4.84-15-2.62a12.15,12.15,0,0,0-5.58,3.8c-9.64-13.21-7.3-21-4.06-25.83,1-.08,2-.2,3.15-.32a40.6,40.6,0,0,1,5.88-.41c2.1.05,2.52.39,4.3,1.81A23.49,23.49,0,0,0,456,236.76c9.63,2.27,15.51-2.66,17.89-6.44A29.74,29.74,0,0,0,489.83,235l4-.07a29.68,29.68,0,0,1-7,2.31l-7.65,1.2,2.51,7.33a13.83,13.83,0,0,0,7.48,7.78c4.86,2.13,10.77,1.7,17.58-1.29,11.28-5,19.5-13.5,23.35-24.21a20.93,20.93,0,0,0,6.1-.17c9.77-1.82,14.68-11.51,15.11-19.75C551.71,200.31,548.32,194.35,542.47,192.62ZM96.68,291c-.29-.9-.44-1.46-.53-1.8a13.41,13.41,0,0,1,3.56-3.65c7.2,2.71,13.5,4.93,19.85,6.72a42.66,42.66,0,0,1-13.51,3.67l-8.12.92A22.2,22.2,0,0,0,96.68,291ZM284.15,452.92l-4.27-5.69-.19-6.38-7.21,1c-3.49.51-5.33.18-6.36-.38,5.26-3.68,13.17-9.78,19.36-17a36.6,36.6,0,0,0,7.61-14.35c.2-.65.41-1.32.57-1.75l.24,0,.7,0,.68-.19a239.65,239.65,0,0,1,35.05-6.9c-.23,2.75-.44,5.07-.65,6.93-1,.55-2.39,1.24-3.41,1.75-9.35,4.64-31.25,15.5-22.26,39.53.44,1.16.92,2.35,1.48,3.64,4.86,16.16,4.5,22.76,4,23.8-.83,1.55-9.09,2.63-17.7,1l-11-2.06c.22-.35.44-.72.66-1.1C284.77,469,288.24,458.37,284.15,452.92ZM548.8,208c-.37,7.29-4.62,15.85-13.06,17.42a21.14,21.14,0,0,1-7-.05l-.37,0c-3.29,11-11.22,19.64-22.62,24.65-6.13,2.7-11.37,3.13-15.56,1.29A11.4,11.4,0,0,1,484,245l-1.54-4.5,4.71-.74c.1,0,10.08-1.8,13.88-7.41l-11.3.2c-.46,0-9.93.09-16.77-6.08l-.69,1.53c-1.42,3.14-6.53,8.51-15.74,6.34a21.14,21.14,0,0,1-9.29-4.74c-1.9-1.52-2.85-2.29-5.8-2.36a43.79,43.79,0,0,0-6.27.43c-1.43.16-2.81.32-4.17.37-4.47,6.05-7.73,15.71,4.95,31.8.22.27.45.55.68.85a10.06,10.06,0,0,1,6.14-5.81c5.79-1.91,12.18,1.92,12.89,2.36l5.62,3.52-5.74,3.33a7.51,7.51,0,0,0-3.13,5c-.19,1.42.84,6.57,3.64,13.31,8.85,9.78,18.79,21.12,27.67,33.18a15.46,15.46,0,0,1,8.43-7.36,14.25,14.25,0,0,1,10.56.78l4.9,2.59-4,3.84a21.82,21.82,0,0,0-5.53,11.73c-.22,1.74-.28,5.22.66,11.95,1.76,3.33,3.32,6.6,4.65,9.77a27.16,27.16,0,0,0,6-5.44,7.21,7.21,0,0,0,.82-6.77l-2.41-5.83,6.27.25c4.24.2,7.68,3.75,9.21,9.5,2.13,8,.27,19.19-7.38,24.05a23,23,0,0,0-6.62,6.47,47,47,0,0,1-3.17,22.62,6.11,6.11,0,0,0,4.25.47L518.4,393l-3.81,7.09c-4.37,8.15-10.74,11.14-18.55,8.76-1.3,1.36-2.64,2.65-4,3.87a22,22,0,0,1,.15,2.56c0,11.07-11,20.29-12.29,21.31l-13.47,10.87c-.32,7.59-2.6,13.34-6.82,17.18,3.27,3.38,6.67,5.28,10.14,5.64,4.88.52,10.48-1.88,16.61-7.15l13-11.19-6.72,15.78c-6.49,15.27-13.63,25.42-21.7,30.8a31,31,0,0,1,5.66,11.12l6.18,20.88-13.2-17.31c-2.58-3.4-5.23-5.48-8-6.29.09,7.22.88,12.67,2.31,15.59.87,1.79,1.67,3.33,2.39,4.69,3.13,6,5.2,9.92,2.27,17.24-2.11,5.28-5.07,7.67-7.32,8.75a9.77,9.77,0,0,0,.23,4.23c1,.92,5.36,1.78,9.09,1.75l14.63-.13-12.53,7.56c-1.13.68-11.3,6.59-19.27,3.86a11.7,11.7,0,0,1-7.18-7.18A52.56,52.56,0,0,1,444,556a10.51,10.51,0,0,1-4.4-4.6c-2.52-4.59-1.62-8.81.21-12.38-2,2.21-4.89,6.5-3.66,11.36.6,2.37,1.29,4.62,2,6.8,2.07,6.78,4,13.19,2.12,20-2,7.3-8.76,9.24-13.51,9.3a15.18,15.18,0,0,0-2.54,5.73c-.19,1.71,2.3,8,5.34,13.47l6.53,11.77-11.9-6.3c-1.27-.67-12.5-6.84-14.89-16.18a28.5,28.5,0,0,1-1-8.46,13.94,13.94,0,0,1-9.45-7.61,9.89,9.89,0,0,1-.66-7.21c-2.41,1.87-3.62,4.77-5,8-1.87,4.47-4,9.53-9.74,11.63-7.83,2.87-13.42-.44-16.08-3.4a13.94,13.94,0,0,0-8.6.74c-3.22,1.51-7,8.61-8.68,13.16l-4.25,11.63-3.36-11.92c-1.25-4.45-4.95-19.49.06-26,2.95-3.8,7.32-5.66,10.7-6.57-1.06-4.57-1.52-11.12,3.12-14.64a14.12,14.12,0,0,1,4.4-2.21,10.33,10.33,0,0,1-2.29-6.83,16.53,16.53,0,0,0-4.36-.94c-2.2.45-9.12,6.39-14.91,12.82l-10.46,11.61,3.6-15.21c1.05-4.45,6.89-26.77,18.61-28.61a38,38,0,0,1,14.65.32c2.5-2.21,6.76-4.1,12.87-2.95,3.9.74,6.41,3.33,8.85,5.84,2.72,2.81,5.3,5.47,10.2,6.46,7.11-2.43,15-6.91,15.47-9.73,2.65-17.21.72-29.5-5.42-34.59-6.42-5.32-17.34-1.35-27.9,2.51-7.3,2.66-14.29,5.22-20.39,5v0c-1.53,4.77-2.54,7.93,2.35,15.16l4.81,7.13-8.55-.91c-14.72-1.57-20.42-8.82-23.75-17.38-3.27,4.5-7.89,7.91-14.86,7.74l-8.31-.21,5.34-6.36a8,8,0,0,0,1.42-2.17c-7.92-1.22-26.78-5.14-30.86-15.17l-2.76-6.78,7.2,1.35c7.3,1.35,18.44,1.3,20.37-2.32,1.17-2.18.85-10.25-3.84-25.83-.58-1.31-1.06-2.5-1.5-3.66-8.2-21.91,11.54-31.71,21-36.41,1.59-.79,3.68-1.83,4.65-2.48.31-2.64.66-6.4,1-11.23-18.91,1.7-38.26,7.23-38.47,7.29l-.41.12-.43,0c-2,.13-2,.13-3,3.53a34.36,34.36,0,0,1-7.12,13.45c-7.06,8.24-16.56,15.05-21.09,18.08,1.3,2.89,4,4.32,10.35,3.4l4.43-.64.14,4.48c.2,6.49-5.68,11.32-12.94,15.45,3.69.25,7.41-2.73,11-8.87l3.05-5.16,3.6,4.79c3.16,4.22.22,13.72-2.87,19.12-4.81,8.37-12.17,12.65-20.22,11.72a42.08,42.08,0,0,1-11.56-2.82c.41,5.43,1.69,6.44,1.71,6.45,5.51,2.41,16.77.15,20.27-.83l8-2.26-3.28,7.68c-.29.69-7.47,16.83-32,16.83a38.79,38.79,0,0,1-9.79-1.2c-.71,6.16-3.85,11.47-9.38,15.84l-8.39,6.61,2-10.49c1.4-7.41.3-10.29-.48-11.34a2.9,2.9,0,0,0-1.25-1l-14.19,13.32c-.41.72-.83,1.41-1.23,2.08-.5.84-1.13,1.89-1.56,2.69,4.74,5.8,5,15.74,2.61,20.41a8.86,8.86,0,0,1-7.62,4.83c-1.27,1.69-2.76,4.14-2.83,5.92s3.18,7.8,6.15,11.88l7.52,10.33L191.69,576c-.63-.22-15.45-5.5-16-16.83a29.25,29.25,0,0,1,.45-6.86A13.68,13.68,0,0,1,170,547a9.19,9.19,0,0,1-.64-7.45c.81-2.51,2.73-4.93,4.76-7.5.57-.72,1.33-1.68,2-2.59-12,.68-23.4,2.16-28.11,7.62-1.24,3.37-6.35,15.49-16.07,16.58-6.94.79-11.18-3.32-13.13-7.56a8.39,8.39,0,0,0-3.37,1.5c-1.1,1.52-1.71,8.65-1.27,15.08l1.29,19-8.83-16.93c-2.38-4.56-9.84-20.06-5.88-27.74a15.92,15.92,0,0,1,7.49-7.31,10.74,10.74,0,0,1-3.86-1.75c-4.88-3.47-5.5-9-4.81-13.34-2.43-.82-5.48-1.38-7.31-.34-3.11,1.77-8,9.39-10.41,14.24l-6.34,12.56-1.21-14c-.41-4.65-1.8-28,10.43-32.52a35.47,35.47,0,0,1,16.83-1.94,12.13,12.13,0,0,1,7.84-5.37,13.1,13.1,0,0,1-4.54-9.08c-.69-8.42,5.62-12.79,11.12-14.14a5.55,5.55,0,0,0,.19-3.05c-1.77-1.21-8.87-2.44-15.4-2.63l-16.68-.49,15.1-7.13c1.52-.71,15.1-6.92,23.83-4,6.17,2.1,10.24,7.63,12.26,11.08a11.85,11.85,0,0,1,11.5,5.85c2.15,3.65,1.49,8.25.86,12.7-.71,5-1,8.29.79,9.39.73.44,5.67,2.61,31.83,2.42,21.06-14.19,32.4-27.54,34.53-40.69-5.59-1.66-16.12-5.83-20.08-14.5-1.19,2.88.08,7.1.68,8.51l2.05,4.81-5.18.73a18.78,18.78,0,0,1-13.13-3.51c-4-3-6.46-7.68-7.3-13.81-1.42-10.48,4.08-21.38,8.85-28.58-4.12-.58-7.26-3.62-10.35-11.1l-3.3-8,8.23,2.66c1.4.45,2.53.76,3.43,1-3.55-2.43-7.34-6.15-8.48-11.34-1.32-6,1.23-12.21,7.58-18.47l6.81-6.71v9.56c0,3.46,1.22,9.64,3.58,9.64.56,0,3.94-.35,16.09-7.27,7.33-8.16,27.52-20.23,36.71-15.68l.47.28c16.87,11.45,39.41,12.08,51.35,11.44a66.56,66.56,0,0,0,27.84-8.26C307.8,333.64,289,331,270.75,328.51c-4.71-.65-9.17-1.27-13.52-2.1a60.87,60.87,0,0,1-9.72,2.53l-6.32,1,1.89-6.12s.13-.43.34-1.2c-7.71-3.05-13.21-7.38-17.14-13.45a71.31,71.31,0,0,1-5.25-9.74c-.16.38-.31.76-.44,1.14-4.65,13.87-19.07,14.22-19.68,14.23l-6.51.09,2.86-5.85c1.16-2.38,2.29-6.55,1.42-8.17-.75-1.39-4.39-3.18-7.8-4.25-.55.39-1.22.91-1.91,1.51l1.05.35.81,4.82-2,1.45a3.9,3.9,0,0,1-3.24.69c1.71,4,7.31,9,10.69,11.37l10.91,7.62-13.3-.34c-2.66-.06-26.32-.95-35.52-11.16-5.51-6.12-6.43-11.81-6.08-15.78a3.17,3.17,0,0,0-.37.08,3.52,3.52,0,0,0,0,.7c1.07,8.21-3.12,13.23-12.46,14.85l-7.41,1.29,3.08-6.87,0-.07a16.82,16.82,0,0,1-10.1,5.27c-10.31,1.45-20.42-6.52-20.84-6.86l-7.54-6,9.59-1.08c7.16-.82,15.82-3.55,17-6.19a4.34,4.34,0,0,0-.57-1.7,233.94,233.94,0,0,1-23.34-7.79,16.24,16.24,0,0,0-5.76,5.86c-.2.38.4,2.26.69,3.16.89,2.76,2.23,7-.48,10.82s-7.51,4.83-11,5.09a37,37,0,0,1-.67,4.07,11.07,11.07,0,0,1-5.24,7.32c-5.24,3-11.89,1.11-12.63.88L54,316.82l9.75-4.35A5.3,5.3,0,0,0,66.27,309a10.71,10.71,0,0,0,.2-3.13c-4.18-1.35-10.29-4.17-10.82-9.24-1.08-10.29,8.77-13.81,14.07-15.7.66-.24,1.45-.52,2.11-.78a11.94,11.94,0,0,0-1.91-1.81c-4.45-1-14.87-2.85-20.32-2.11-2.76.37-4.69,2.42-6.93,4.79-2.41,2.56-5.15,5.46-9.29,5.86-5.77.57-9.53-3.7-11.38-7.39-2.69-.54-6.08-1-7.69-.69-.9.76-2.3,4.1-2.9,6.94L7.82,302.78l-4.2-16.94C3.1,283.74.73,273,5.09,267.53c3.28-4.12,10.59-5.48,14.85-5.93a12.59,12.59,0,0,1,5.67-5.54c4.29-2.27,8.16-.49,11,.81,1.35.62,2.75,1.26,3.55,1.15a14.75,14.75,0,0,0,5.4-2.51c-.8-2.63-2.09-5.63-3.45-6.65a17.88,17.88,0,0,0-6.54-2.7c-4-1-9-2.37-10.9-9.08-1-3.7.92-7,3.61-9.36a9.36,9.36,0,0,0-1-.6c-3.92-2.14-6.89-.73-7-.67L8.22,233l6.72-12c.68-1.23,6.89-11.93,15.81-9.86,5,1.17,8.94,4.69,11.14,7.13a9.78,9.78,0,0,1,9.52,3c2,2.19,3.66,6.55,5.62,11.6,1.42,3.65,3.79,9.74,5.07,10.87,1.21.83,4,1.2,6.51,1.28a18.51,18.51,0,0,0-.54-2.14,7.49,7.49,0,0,0-2.19-3.55,9,9,0,0,1-2.95-8.26c.47-4.55,2.5-6.9,4.53-8,.71-2.16,1.28-4.92.86-6.32a9.51,9.51,0,0,0-2.17-4l-7.94-6.81,10.52-.17c1,0,9.47,0,13.85,5.76,2.28,3,2.44,6.77,2,9.92A10.17,10.17,0,0,1,91.77,225c2.68,3.2,2.09,7.91,1.52,12.46-.26,2.11-.75,6-.15,6.95A17,17,0,0,0,96.83,247a102,102,0,0,0,15.4,3.19l.51-6.94c.08-1.07,2-24.8,17.81-37.12a66.88,66.88,0,0,0-6.21-7.5c-3.68-.6-8.78-.63-10.4.85-1.11,1.09-1,7.62.78,14.09l2.64,9.58-8.54-5.07c-.54-.32-13.23-8-12.52-22.71.23-4.82,2.06-9.78,4.35-14.21a13.32,13.32,0,0,1-2.15.16c-8.72,0-12.36-7.06-13.06-10.78l-1.17-6.18,6.09,1.56a6.7,6.7,0,0,0,7-2.73c3.71-5.53,5.62-13,5.58-14.8a18.39,18.39,0,0,0-1.29-5.17c-.21-.6-.42-1.2-.61-1.8l-.11-.41a27,27,0,0,1-.45-5.73c-3.09-1.3-6.87-2.3-10.31-1.62-.43.09-1.51,1.73-2,2.52-1.6,2.43-4,6.09-8.73,6.41s-8.47-2.82-10.9-5.42a34.27,34.27,0,0,1-3.59,2,11.08,11.08,0,0,1-9,.51c-5.63-2.19-8.31-8.57-8.6-9.29l-4-9.91,9.5,4.87a5.28,5.28,0,0,0,4.3-.26,10.37,10.37,0,0,0,2.56-1.81c-1.57-4.1-3.2-10.62.42-14.22,7.34-7.29,16.26-1.82,21,1.12.6.36,1.31.8,1.93,1.16a12.63,12.63,0,0,0,.21-2.63c-2-4.07-7.1-13.37-11.09-17.15-2-1.92-4.83-2.14-8.08-2.4-3.5-.27-7.48-.58-10.38-3.56-4.06-4.15-3.1-9.75-1.39-13.5-1.26-2.43-3-5.35-4.29-6.43-1.15-.22-4.57.77-7.22,2.1L25.4,75.59,35.89,61.78c1.31-1.71,8.18-10.28,15.19-10.32h0C56.37,51.46,62,56.28,65,59.3a12.68,12.68,0,0,1,7.87,1c4.45,1.92,5.49,6,6.25,9.06.36,1.45.74,2.94,1.33,3.49a14.74,14.74,0,0,0,5.34,2.62c1.55-2.26,3.08-5.15,3-6.85a17.71,17.71,0,0,0-2-6.78c-1.7-3.8-3.81-8.52.24-14.19,2.24-3.12,6-3.67,9.56-3.05a9.25,9.25,0,0,0-.14-1.14c-.8-4.42-3.77-5.84-3.8-5.85L80,32.27l13.52-2.34c1.38-.24,13.62-2.11,17.59,6.14,2.25,4.65,2,9.9,1.44,13.14a9.79,9.79,0,0,1,3.6,9.32c-.48,2.9-2.81,7-5.52,11.66-2,3.39-5.21,9.06-5.28,10.76.11,1.47,1.56,3.87,3.08,5.88a17.61,17.61,0,0,0,1.32-1.77,7.3,7.3,0,0,0,1.39-3.93,9,9,0,0,1,4.6-7.47c3.83-2.49,6.94-2.39,9.06-1.49,2.13-.8,4.64-2.08,5.46-3.28a9.45,9.45,0,0,0,1.78-4.23l.33-10.44,6.73,8.08c.61.73,6,7.35,4.19,14.4-.91,3.66-3.74,6.15-6.49,7.76a10.19,10.19,0,0,1,1.77,7.85c-.82,4.09-4.86,6.58-8.76,9-1.81,1.12-5.17,3.2-5.51,4.24,0,.23-.44,2.78,2.26,14.34,5.52,3.32,10.66,10,17,18.18,3,3.92,6.36,8.24,10,12.46.74-1.27,1.24-2,1.28-2.09l5.42-8,1.83,9.5a56.42,56.42,0,0,0,4.79,13.85,65.94,65.94,0,0,0,11.1,7.4c8.29,1.88,12.78,1.26,14.12.13.17-.14.54-.45.46-1.69l-.3-5.05,5,.87c4.63.81,10,3.29,15.74,5.91,7.34,3.36,15.67,7.18,21.8,6.92,6.43-.27,17.06-5.82,25-12.48h-.19l-1.17-2.35c-.08-.14-7.81-15.08-20.2-12.85-11.79,2.12-10.67,14.4-10.62,14.92l.86,8.47-7.07-4.74c-.38-.25-9.4-6.42-7.94-16.31,1.21-8.15,7.26-17.75,18.26-23.44-2.67-3-4.3-7.67-2.67-15l1.36-6.1,5,3.79a28.11,28.11,0,0,0,13.45,4.53c2.7.2,5.76-3.07,8.21-7a56.29,56.29,0,0,1-7.36.88c-8.74.45-16.56-2.68-25.39-10.13-8.3-7-10.64-28.52-10.88-30.95l-.86-8.74,7.15,5.08c.13.09,13,9.08,26.11,8.63a12.36,12.36,0,0,0,3.89-.81,47.92,47.92,0,0,1-13.23-30.32l0-2.78,2.59-1c2.73-1,5.34-1.95,7.86-2.7l.09-5.93c0-1.54.47-15.16,8.18-21.15s20.32-3.12,31.65,0a90.7,90.7,0,0,1,15.22,6.17,23.14,23.14,0,0,1,1.19-5.9c2.8-8,17.68-7.77,23.94-7.28l11,.87-9,6.39c-3.76,2.68-6.7,6.42-6.46,7.6.53,1.83,6.43,6.88,12.7,10.92a63,63,0,0,1,9.25,1,145,145,0,0,1,17.36,3.73c7.89,2.3,11.8,4.6,13.09,7.71,1.61,3.92.47,7.86-1.26,11a107.06,107.06,0,0,1,29,7.66c5.24-.18,15.8,0,19.87,3.78l.88.82.28,1.16c1.69,7-2.24,14.25-4.58,17.79,2.09,7-.87,20.54-5,27.48-5.41,9.07-12,7.62-14.55,6.57l-1.51-.61-.65-1.5c-.88-2-3.52-3.9-7-5a20.13,20.13,0,0,0-13.78.45c4.21,1.29,8.34,2.76,12.22,4.14,9.1,3.26,17.7,6.33,23,5.48,1.6-.26,2.38-2.2,3.89-6.89,1.79-5.54,4.24-13.12,11.88-18.46A29.92,29.92,0,0,1,451,90.15c8.65,1.8,16.22,7.37,21.3,15.67l2.31,3.77-4,1.92c-10.3,5-16.51,4.23-21.05,3.69-3.47-.42-5.06-.61-7.86,1.48s-4.67,6.09-6.79,10.45c-3.71,7.63-8.32,17.11-19.22,17.11a31.94,31.94,0,0,1-8-1.22c-.91,2.88-3.54,6.06-6.21,8.7,1.21,3,5,7,6.95,9.07l7.25,7.68-10.52-1c-5.57-.5-9.34-1.91-11.9-3.69a10,10,0,0,1-4,4.19l-5.33,2.93-.57-6.05a6.65,6.65,0,0,0-1-3.15c-5.4.94-14.87,2-19.27-.67l-1.63-1-.24-1.91c-.24-1.41-3.47-5.88-6.89-9.53-3.19-2-6.09-2.47-9.25-1.45l-3,2.8a43,43,0,0,0,11,16.07c9.54,8.78,14.17,22.51,14.17,42,0,13.68-18.38,28.53-20.47,30.18l-12.63,9.93,6.5-14.69c1.73-3.95,3.61-11.14,2.12-14a2.23,2.23,0,0,0-1.77-1.17c-6.09-1.21-8.32,3.67-8.9,5.38-.83,15.77,1.64,33.86,6.6,34.91,10.09,2.15,19.57-3.6,19.67-3.65l7.11-4.38-1,8.28a30.7,30.7,0,0,1-19.63,23.54c2.2,3.4,4.48,6.83,6.83,10.26,16.87,24.64,28.45,44.28,35.38,60,5,4.61,10,9.49,14.87,14.21,19.51,19,37.92,37,55.4,36.26,8-.33,15.52-4.63,22.93-13.14a25.75,25.75,0,0,0,3.69-5.42c-3.42-.05-6.65-1.9-9.84-5.66L468,371.64l9.42.6c1.54.1,5.06.32,7.83-8.49-.11-.43-.23-.86-.35-1.29-7.56-2.36-11.65-3.23-13-3.23-1.72.09-7.24,4.11-11.57,8.43L452,376l1.59-11.72c.19-1.44,1.5-10,5.73-16.09l-3.52-.67c-1-.19-9.83-2-13.3-8.27a11.44,11.44,0,0,1-.43-10,18.45,18.45,0,0,1,3.36-5.73c-1.73-.37-3.5-.7-4.92-1-9.53-1.76-21.39-3.95-25.72-12.85-6.09-12.56,2-23.71,7.16-27.85l2.48-2c-1-1.06-2.05-2.14-3.11-3.23-12.92-13.4-18.79-26.73-17.42-39.62,1.2-11.38,8.31-22.13,20.06-30.37,2.8-6.7,7.89-9.81,11.33-11.91a16.8,16.8,0,0,0,3-2.1c-.28-1.49-5.93-4.63-12.2-6.18l-14.94-3.7L426,178.73c2.75-.75,16.78-4.23,23.49.62a15.39,15.39,0,0,1,4.48,4.92,32.75,32.75,0,0,0,2.9-3.77c4.14-6,8-9.94,23.18-10.9,27.23-1.72,44.11,16,48.67,33.62,1.55,1.1,4,2.29,5.34,1.81,1-.35,2.15-2.27,2.65-6.63l.54-4.73,4.56,1.35C546.45,196.4,549.15,201.39,548.8,208ZM364.19,522.57l.87.09-.07.05Zm5.36-2.16-5.84-8.65c-3.66-5.4-3.59-7.82-2.57-11.31,6-.27,12.53-2.64,19.41-5.15,9.89-3.61,20.12-7.35,25.44-2.94s7,16.22,4.57,32.19c-.53,1.38-6,5.06-13.17,7.62-3.72-.93-5.74-3-8.26-5.61s-5.5-5.67-10.18-6.56a22.3,22.3,0,0,0-4.06-.39A17.65,17.65,0,0,0,369.55,520.41ZM256.6,487.46a18,18,0,0,1-5.74-.62,6.63,6.63,0,0,1-.24-.67A49.85,49.85,0,0,0,256.6,487.46ZM192.81,300a12.89,12.89,0,0,1,3.66,2.07,13.39,13.39,0,0,1-1.45,5.88l-1.61,3.29a35,35,0,0,1-3.76-4,7.66,7.66,0,0,0,.7-.46l3.2-2.35ZM62.13,238.75a15.9,15.9,0,0,0,2,2.34,7,7,0,0,1,.93,1.06,6,6,0,0,1-1.34-.38A19.12,19.12,0,0,1,62.13,238.75Zm56.12-21.82-1.12-4.05c-1.47-5.35-1.6-10.2-1.26-11.71a18.1,18.1,0,0,1,7.24-.23c1.09,1.17,2.6,2.88,4,4.74A43.59,43.59,0,0,0,118.25,216.93Zm-9-139.08a16.21,16.21,0,0,0-.59,3,7.13,7.13,0,0,1-.24,1.39,6.15,6.15,0,0,1-.54-1.28A18,18,0,0,1,109.26,77.85Zm129.46,75.2c10.46-1.88,17.45,11.4,17.51,11.51l.32.65c-7.56,5.89-16.68,10.33-21.87,10.55a16.1,16.1,0,0,1-3.5-.28l-1-10.22C230,164.19,229.33,154.74,238.72,153.05Zm2.34-40.71a31.79,31.79,0,0,0,8.79.72q.74,0,1.47-.09a3.84,3.84,0,0,1-2.26,1.26A26.58,26.58,0,0,1,241.06,112.34Zm93.56,111.8c.77-2,2.42-4.13,5.93-3.43l.1,0c.7,1.78-.38,7.43-2.25,11.69L335,240.22A109.1,109.1,0,0,1,334.62,224.14ZM462.75,368.8c4.18-4.05,8.2-6.69,9.33-7.06,1,.07,4.09.68,10.33,2.58-2,5.62-4,5.49-4.84,5.42Z"/><path class="cls-1" d="M493.41,212.87c-2.18,1.35-5,3.62-6,6.36-1,2.89,4.09,5.74,4.14,5.77L502,230.54a7.59,7.59,0,0,0,.37-1.34C503.6,222.79,496.83,215.89,493.41,212.87Zm-.64,9.93c-1.53-.87-2.93-2.29-3-2.76a9.5,9.5,0,0,1,3.36-4c2.42,2.35,6.2,6.58,6.79,10.55Z"/><path class="cls-1" d="M406.74,401.8c-2.8-2.08-5.44-4.05-7.87-5.75a161.62,161.62,0,0,1,3.65,18.36c2.25,14.29,3.91,22.53,11.75,25.66,4.07,1.61,7.34,1.78,9.74.48,3.55-1.91,4.56-6.6,4.57-6.65l1.36-6.58,5.15,4.31c5.69,4.83,8.89,10.09,9.55,15.7,5-1.31,9.83-4.95,14.24-10.72l6-7.79,1.18,9.74a58,58,0,0,1,.44,6.62l7.4-13.63a20.31,20.31,0,0,0,2.33-8.66C449.65,433.75,425,415.37,406.74,401.8Zm66.39,24.84a20.86,20.86,0,0,1-1.46,3.72l-3.36,6.2-1-8.51A47,47,0,0,0,473.13,426.64Zm-11.29,2-4.94,6.45c-3.26,4.25-6.8,7.29-10.36,8.91-1.37-5.11-4.67-9.9-9.85-14.28l-8.34-7-2.22,10.67c-.22,1-1.25,3.87-3.31,5s-5.32.31-7.62-.61c-6.28-2.5-7.86-8.82-10.21-23.72-.59-3.73-1.22-7.78-2.1-12l2.36,1.76c14.59,10.87,33.42,24.89,54.32,24.89C460.32,428.7,461.08,428.68,461.84,428.64Z"/><path class="cls-1" d="M433.69,303.17c3.66.63,6.7-.6,10.21-2l.13,0c-4.67-5.25-9.81-10.84-15.51-16.87l-.12,1.18C428.05,288.9,427.92,302.17,433.69,303.17Zm6.06-3.11a11.05,11.05,0,0,1-5.63.64c-2-.35-3.17-5.47-3.36-10.43C433.94,293.67,436.91,296.92,439.75,300.06Z"/><path class="cls-1" d="M468.64,209a11.05,11.05,0,0,0-4.09,2.07,11.29,11.29,0,0,0-3.8,8.19c-.07,2,.23,2.49.24,2.51s1.14.9,7.48.57l1.06-.06A14.13,14.13,0,0,1,468.64,209Zm-5.4,10.81v-.37a10,10,0,0,1,1.66-5.11,16,16,0,0,0,.78,5.59A22.26,22.26,0,0,1,463.24,219.82Z"/><path class="cls-1" d="M154.46,242.54l-15.09-6.28c-10.64,1.56-19.8,10.07-19.9,10.17l-4.31,4c11.21,1.07,21.08,0,31.32-1,5-.52,10.05-1,15.32-1.32,0-1.26,0-2.47,0-3.57A38.68,38.68,0,0,1,154.46,242.54ZM146.21,247c-8.42.88-16.45,1.72-25.15,1.4l.13-.11c.23-.22,8.45-7.74,17.88-9.4l14.42,6a33.28,33.28,0,0,0,3.27,1.1C153.16,246.24,149.65,246.6,146.21,247Z"/><path class="cls-1" d="M270.54,27.76c-8.33-2.42-16.56,5.91-16.65,6l-1.63,1.68A56.36,56.36,0,0,1,264.6,34a45.81,45.81,0,0,1,12.46,1.72A8.4,8.4,0,0,0,270.54,27.76Zm-5.94,3.71c-1.17,0-2.34,0-3.52.12,2.55-1.35,5.71-2.32,8.77-1.43a6.69,6.69,0,0,1,3.41,2.09A48.09,48.09,0,0,0,264.6,31.47Z"/><path class="cls-2" d="M540.63,198.86c-1.93,16.8-13.65,8.37-15.53,6.6C521.17,187.78,505,172,480.25,173.59c-22.73,1.43-15.92,9.76-28.8,17.81,0,0,1.13-4.83-4.36-8.81s-20.08,0-20.08,0,15.06,3.7,15.25,10c.17,5.59-11.12,5.39-15.05,16.64-18.46,12.42-31.34,35.29-3,64.62C434,284.06,443,293.75,451,303c-5.69,1.27-10.81,5.4-18,4.16-10.67-1.85-8.59-22.11-8.59-22.11s-12.38,10-6.07,23,36.13,8.59,37.65,17.18c0,0-6.32-4.55-10.24,5.56s10.74,12.88,10.74,12.88-4-5.93-.13-7.95,20.09,3.41,20.09,3.41,3,6.82-6.7,6.94-12.25,18.82-12.25,18.82,9.6-9.6,14.4-9.6c3,0,10.88,2.35,16.19,4.06.51,1.55.93,3.07,1.28,4.57-2.23,7.81-5.91,12.78-12.23,12.37,4,4.68,8.24,6.32,13.17.61a28.33,28.33,0,0,1-7,15.69c-32.78,37.6-65-6.07-99.55-37.57-6.5-15-17.49-34-35.36-60.1q-5.26-7.71-9.72-14.82c19.67-4.45,21.86-21.74,21.86-21.74s-10.73,6.69-22.61,4.16-9.72-39.53-9.72-39.53,2.9-10.74,13.64-8.59,2.53,20.71,2.53,20.71,18.94-14.9,18.94-27-1.76-28.8-12.88-39a46.24,46.24,0,0,1-13-20.19l5.56-5.11c5.25-2,9.78-.91,13.94,1.84,0,0,7.77,8.17,8.27,12.13,4.19,2.58,18.33-.19,18.33-.19,2.27,1.35,3.46,3.76,3.78,7,3.53-1.94,3.6-7.92,5-8.33,1.22,4.62,6.59,6.75,13.14,7.35-4.33-4.6-8.24-9.14-8.41-13.17,0,0,7-6.44,6.92-9.38-.05-1.27-1.23-2.59-2.64-4.21,5.53,2,10.55,3.47,14.34,3.47,13.77,0,14.78-20.21,23.62-26.77s12.38,2.73,29.56-5.56c-10-16.3-27.83-17.51-38.78-9.85-12.56,8.78-8.72,24.63-17.43,26-11.74,1.87-32.21-10.61-50.91-12.89-13.78-1.67-13.84,1.18-22.53,4.11,2.45-10.26,10.14-22.37,16.24-21.78,8.49.83,17.12,4.34,17.82,14.34,9-5.64,24.63-2.16,28,5.61,11.93,4.85,17.53-27.39,13.42-30.76,0,0,7.13-9,5.31-16.43-3.56-3.33-17.87-2.68-17.87-2.68a102,102,0,0,0-35.93-8.29s7.62-7.07,5.22-12.89-35.54-10.8-36.95-9.81c0,0-14.61-9-15.67-14.24S326.89,6.7,326.89,6.7,309.12,5.31,307,11.3a20.58,20.58,0,0,0-.42,11.52S294.68,16,285.8,13.58s-21.73-5.65-28.14-.67S251,31,251,31s9.81-10.19,20.64-7S281,38,281,38a18.81,18.81,0,0,1-2.92,2.23c-11-3.64-22-2.91-37.56,3.1,0,0,.25,18.65,16.14,31.23A20.68,20.68,0,0,1,246,78.46c-14.67.48-28.55-9.37-28.55-9.37s2.18,22.12,9.48,28.29,14.16,9.63,22.6,9.19a52.64,52.64,0,0,0,15-3s-6.4,17.84-15.89,17.13A31.57,31.57,0,0,1,233,115.37c-1.72,7.73.52,12.89,7.71,14.86-15.22,4.35-22.14,15.78-23.25,23.29s6.21,12.4,6.21,12.4-1.68-16.46,13.89-19.26,24.48,15,24.48,15l7.89-.42c-7.54,9.7-24.71,20.59-35,21-12,.51-28.3-11.11-38.4-12.88.51,8.49-10.84,7.73-20,5.58a69.64,69.64,0,0,1-12.85-8.57c-3.88-6.76-5.59-15.7-5.59-15.7a47.61,47.61,0,0,0-3.67,6.88c-13.51-14.46-22.64-31-31.39-35-1.71-7.06-3.4-15.36-2.64-18.08,1.4-5,13.24-8.18,14.19-13s-4.89-8.42-4.89-8.42,8.34-2.1,9.66-7.37-3.37-10.86-3.37-10.86a13,13,0,0,1-2.48,6.28c-2.38,3.48-9.32,5.42-9.32,5.42s-1.8-2.49-6.33.44-1.19,4.84-4.84,10.28-5.61,4.58-5.61,4.58-5.77-6.05-6.1-10.7,10-18.43,10.84-23.28-4.15-6.8-4.15-6.8,2.24-7.53-.54-13.29-13.3-3.93-13.3-3.93,5,2.07,6.19,8.82c1,5.35-1.56,6.67-1.56,6.67s-6.23-2.65-8.53.57c-4.56,6.37,2.21,10.3,2.49,18.5.17,4.85-5.39,11.5-5.39,11.5s-6.4-1.12-9.7-4.22S76,66,71.29,63.92s-7.35.09-7.35.09-7.45-8.58-12.84-8.55-12,8.74-12,8.74S47.32,60,50.4,62.39s6.49,9.79,6.49,9.79-4.24,6.54-.25,10.63,12.65.43,18.36,5.85,12.27,19,12.27,19,.67,6.66-2.57,8.16S70.76,104.14,63,111.9c-2.85,2.83,1.3,11.87,1.3,11.87s-1,2.68-5.26,4.87a9.21,9.21,0,0,1-8,.27s4.18,10.48,12.14,6.65a37,37,0,0,0,6.09-3.85s4.72,7.2,9.86,6.86,5.85-8,10.25-8.86c5.36-1.07,11,.9,15.3,3.1a23.65,23.65,0,0,0,.16,7.35c.88,2.74,2,5.44,2.09,8.12s-2.09,10.89-6.26,17.11-11.3,4.38-11.3,4.38,1.42,7.5,9.14,7.52,10.95-9.32,15.54-8.45c0,0-13.15,14.25-13.76,26.69s10.57,19.08,10.57,19.08-3.93-14.18.38-18.12,15.09-1.59,15.09-1.59,6.65,6.61,9.59,12.35c-17.29,10.43-19.19,36.27-19.19,36.27S128.85,232,142.62,232a54.11,54.11,0,0,1,19.19,3.41,10.41,10.41,0,0,1-5.82,3.42,37.1,37.1,0,0,0,9.62,2.22,81.4,81.4,0,0,1,0,10.91c-22.71.58-41.63,7.07-70.4-1.31-2.58-1.5-4.59-2.9-5.35-3.95-3-4.25,1.93-15.45-1.18-19.18s-9.64-1.47-9.64-1.47,3.6-7.81.32-12.15-10.57-4.17-10.57-4.17a13,13,0,0,1,3.33,5.86c1.22,4-1.61,10.66-1.61,10.66s-3.08-.16-3.63,5.21,3,4,5,10.21,0,7.25,0,7.25-8.33.7-12.16-2-8.06-19.38-11.34-23-7.9-1-7.9-1-4.46-6.45-10.69-7.9-11.4,7.9-11.4,7.9,4.73-2.58,10.76.7c4.77,2.6,4.21,5.4,4.21,5.4s-6,3.19-4.9,7c2.1,7.54,9.4,4.73,16,9.65,3.88,2.91,5.57,11.41,5.57,11.41s-4.88,4.29-9.37,4.91S32,257.21,27.48,259.6s-4.54,5.78-4.54,5.78S11.58,265.8,8.22,270s-.72,14.85-.72,14.85,1.9-9,5.69-10S24.88,276,24.88,276s2.44,7.4,8.12,6.86,8.27-9.59,16.07-10.64,22.5,2.36,22.5,2.36,5.61,3.65,4.74,7.11-17.83,3.54-16.68,14.48c.42,4,10.06,6.43,10.06,6.43s1.44,2.49.5,7.15a9.2,9.2,0,0,1-4.78,6.37s10.79,3.31,12.79-5.28a36.47,36.47,0,0,0,.82-7.16s8.57.83,11.52-3.39-2.55-9.56-.47-13.53c2-3.74,5.41-6.48,8.9-8.43a234,234,0,0,0,26.37,8.75c1.56,2.46,2.37,4.76,1.71,6.51-2.58,6.82-20.27,8.81-20.27,8.81s17.28,13.81,27.07.1l5.43-6.79c3.18,1.93,2.41,6.76-.44,13.12,5.61-1,10.13-3,9.17-10.45-.57-4.91,3.09-6.07,9.37-4.91,0,0-4.31,7.56,4,16.78S194,320.08,194,320.08s-10.54-7.33-12.56-14.43a7.54,7.54,0,0,1,.88-5.8,25.72,25.72,0,0,0,4.1,1.65,10.9,10.9,0,0,1-2.74-3.67,27,27,0,0,1,6.49-5.57s9.67,2.38,12,6.7-1.34,11.83-1.34,11.83,12.14-.16,15.94-11.5a21,21,0,0,1,4.49-7.42l1.11.11a69,69,0,0,0,7.24,15c4.39,6.78,10.86,10.62,18.51,13.08-.67,3.05-1.25,4.93-1.25,4.93a58,58,0,0,0,10-2.71c22.95,4.56,52.29,3.09,69.59,27.66-9.95,7-23.42,10.69-33.45,11.23-17.62.95-38.47-1.7-53.81-12.13-6.64-3.28-25.59,7.2-32.37,15.24-7.32,4.2-15.13,8.13-18.66,8.13-7.58,0-7.58-13.64-7.58-13.64-18.19,17.94,6.31,26.78,6.31,26.78-2.27,4.29-4.67,5.68-12.88,3,4.22,10.22,6.89,9.95,15.91,7.08,0,0-16.29,17.81-14.14,33.6s15.91,13.89,15.91,13.89-5.75-13.21,5.36-16.88h0a25.47,25.47,0,0,0,.45,2.73c2.85,11.94,21.6,15.54,21.6,15.54-.84,17.45-15.53,32.91-37.13,47.37l-.41.33c-12.81.12-30.65-.23-35.21-3-7.33-4.43.37-17.69-3-23.5s-10.23-3.41-10.23-3.41-3.91-9.22-11.37-11.75-20.84,3.79-20.84,3.79,17.43.51,19,4.93a10.23,10.23,0,0,1-1.14,8.34s-10.61,1-9.85,10.23S121,487.74,121,487.74c12,3,21.6,16.29,21.6,16.29-6.45,8.72-19-11.49-28.05-12.88S104,497.21,104,497.21s-7.83-2.52-17.81,1.14-7.83,28.42-7.83,28.42,6.44-12.76,12-15.91,14,1.51,14,1.51-3.28,8.34,2.4,12.38S119.85,522,119.85,522c4.34-3.9,9.83-5.14,16.29-4.13,0,0-3.29,6.34-5.66,7.39s-9.76-2.28-13.64.37a6.64,6.64,0,0,0-2.94,6.73,11.69,11.69,0,0,0-9.57,6.54C101,545.34,110.21,563,110.21,563s-1-15.35,2.65-18.38,8.81-2.75,8.81-2.75,1.42,8.81,9.85,7.87,13-14.59,13-14.59c6.11-8,20.71-9.19,36-9.85,4.34,2.84-5.7,10.62-7.29,15.53-2.15,6.61,7.67,9.1,7.67,9.1a23.49,23.49,0,0,0-1.23,9.09c.46,8.78,13.36,13.26,13.36,13.26s-7.11-9.75-6.92-14.4,5-9.85,5-9.85,4.07,1,5.87-2.56,1.62-13-3.22-17.14c-1.18-1,1.43-4.56,3.79-8.72l16.18-15.19c6.2.69,9,5.76,6.84,17.43,6.7-5.28,8.7-11.54,7.82-18.39a32.15,32.15,0,0,0,13.83,2.89c22.19,0,28.34-14.4,28.34-14.4s-14.89,4.17-23,.64c-3.63-1.59-4.41-8.7-4.17-16.06l.69-.65c2.21,1.87,6.73,4.46,15.4,5.45,15.67,1.8,22.07-21,19.44-24.47-2.6,4.41-7.7,11.61-15.17,10.8-2.85-.31-4.43-2.58-5.3-5.27,8.47-4.36,15.09-8.89,14.93-14-8,1.16-13.92-.8-15.6-9.1,0,0,13.64-8.33,22.73-18.94s4.26-17.8,12.93-18.38c0,0,23-6.62,43.9-7.76-.48,7-1,13.24-1.5,17-.64,4.78-35.36,10.36-25.77,36,.48,1.27,1,2.48,1.5,3.67,2.87,9.45,6.44,23.83,3.62,29.11-4.36,8.15-24.64,4.36-24.64,4.36,4,9.89,30.32,13.07,30.32,13.07,1.9,2.67.89,5.47-1.52,8.34,6.92.17,11.58-3.9,15.73-14,3.47,12.49,6.35,21.88,23.21,23.68-7.18-10.62-3.6-15.13-1.88-21.85,13.81,3.63,39.63-17.86,53.7-6.19,10.77,8.93,8,30.88,6.82,38.27s-18.84,13.16-18.84,13.16l-.05.12c-11.94-1.69-13.94-11.31-20.33-12.52-8-1.51-10.8,3.6-10.8,3.6s-5.68-2.46-15.34-1-15.35,25.58-15.35,25.58,13-14.45,18-14.14a20.8,20.8,0,0,1,8.71,2.59,6.73,6.73,0,0,0,3.6,8.71c6,3,18.07-.63,18.07-.63-3.54,9.35-18.07.63-25.83,6.51-4.76,3.59-.38,14.58-.38,14.58s-8.53.51-12.7,5.88.63,22.42.63,22.42,4.55-12.51,10.74-15.41,12.63-.63,12.63-.63,3.92,6.25,12.38,3.16,6.32-16.16,16.3-20.65,10-4.49,13.64-10.87c-.38,5.87-13.14,14-9.6,21a10.17,10.17,0,0,0,10.73,5.69s-2,3.28,0,11.17,12.89,13.65,12.89,13.65-6.32-11.37-5.81-15.86,4.57-9.4,4.57-9.4,9.45,1.38,11.6-6.26-1.65-15-4.11-24.76,6.63-17,6.63-17,3.92.76,11.94-5.87c-.44,5.87-12.32,12.69-7.73,21,2.15,3.91,4.32,3.22,4.32,3.22a48.9,48.9,0,0,0,2.46,9.09c4.3,11.18,20.65,1.33,20.65,1.33s-11.43.13-12.88-4.36a14.34,14.34,0,0,1,.19-8.71s4.17-.19,6.95-7.14.12-9.1-4.55-18.7c-2.46-5-2.85-14.17-2.68-21.67,5.78-.53,10.77,2.44,15.15,8.19-1.81-6.13-4.73-10.49-8.7-13.14,9.46-3.69,17.7-14.55,24.9-31.48-13.24,11.39-25,11.15-35.24-2.27,7.64-4,9.8-12.79,8.34-24.83-7.43,9.71-15.16,12.8-21.48,12.85,1-6.61-2.2-12.23-8.08-17.2,0,0-3,15.72-19.7,9.09S401.74,412.13,392.26,389c-.26-.65-.56-1.27-.88-1.89,17.33,6.56,50.9,48.21,86.16,30.76a5.27,5.27,0,0,1,2.5,3.25c.95,5.68-2.65,12.31-2.65,12.31s10.8-8.71,10.8-18.19a19.11,19.11,0,0,0-.46-4.12,71.56,71.56,0,0,0,6.67-6.39l.52-.6c6.21,2.75,11.82,2.09,16.15-6-4.58.72-7.7-.62-9.59-3.7a42.64,42.64,0,0,0,3.76-24.33,27.27,27.27,0,0,1,8.61-8.85c9.63-6.13,7.18-25.85.12-26.18,0,0,2.56,5.78-1.32,10.8-2.32,3-7.19,7.15-11.31,8.54a112.28,112.28,0,0,0-6.4-14.07c-.73-5.05-1.2-10.26-.77-13.7a25.61,25.61,0,0,1,6.73-14.12s-9.09-4.8-14.49,6.63a17.52,17.52,0,0,0-1.43,5c-9.94-14.46-21.93-28.14-32.29-39.58-2.8-6.56-4.58-13.16-4.18-16a11.53,11.53,0,0,1,5.09-7.95s-10.11-6.31-13.39,2a14.55,14.55,0,0,0-.51,7.67c-2.69-3-5-5.7-6.83-8C419.39,245.19,421.65,233,429.14,224c3.42.26,7.57-.89,12.46-.78,8,.19,7.48,5.21,15.91,7.2s11.18-4.09,11.18-4.09c-10.11.54-12.15-1.27-11.94-7.27.67-9.95,8.15-15.86,19.71-14.4,0,0-8.72,7.76-3.28,15.91s16.54,8,16.54,8-8.24-4.26-6.06-10.61,10.23-9.85,10.23-9.85,14.53,10.67,12.45,21.85-18.51,13.77-18.51,13.77,2.92,8.52,16.29,2.65c12.16-5.34,18.94-14.7,21.12-25,2.45-.71,5.72.89,9.77.14C545.71,219.54,547.8,201,540.63,198.86ZM360.12,121.68c6.49-.07,18.36,5.47,30,10.52a11.84,11.84,0,0,1-8.29-1.72S376.82,143,362.59,134c0,0-7.93-4.19-14.46-5.34-2.73.76-4.8.66-6.31-.06C347.39,125.46,352.82,121.75,360.12,121.68Z"/></g></g></svg>