<svg xmlns="http://www.w3.org/2000/svg" viewBox="0 0 467.35 313.35"><g id="Layer_2" data-name="Layer 2"><g id="plate"><path d="M181.58,243.31A99.82,99.82,0,0,1,194.41,72.66l-3-3A103.84,103.84,0,0,0,182.87,249Z"/><path d="M287.1,69.68l-3,3A99.84,99.84,0,0,1,297,243.32l-1.3,5.7A103.83,103.83,0,0,0,287.1,69.68Z"/><path d="M251,154.1V254.41l19.21-42.91Zm3.81,23.39,11.31,33.81-11.31,25.27Z"/><path d="M250,259.09V148l21.28,63.59Zm2-98.86v89.5l17.14-38.28Zm1.81,81v-69.9l13.39,40Zm2-57.63v48.27l9.24-20.64Z"/><path d="M259.73,100.23H220.89v-11h38.18l24-24L239.27,21.37,195.44,65.2l21.64,21.64v17.24h40.07l38.93,98.74-17,74.95L257.67,266l-18.44,12.34L219,266l-19.58,11.62-17-74.85,30.74-80.58,6.91,43.4,0,70.94L208.84,211.3,216,190V178L204.75,211.5,224,254.41V165.49h0l-8-50.4h-3.55l-33.89,87.42,18.37,81.1L219,270.48l20.35,12.42,18.55-12.41,23.84,13,18.35-81ZM224.94,85.41l4.89-14L239.28,82l9.34-10.55,5.08,14ZM200.83,65.2l38.44-38.45L277.71,65.2l-20,20L250,64.08,239.26,76.23l-10.9-12.16L220.94,85.3Z"/><path d="M196.18,285.18l-18.73-82.74,34.24-88.35h5.09l8,50.4H225l0,1v93.6l-21.29-47.54L217,171.81v18.32l-7.07,21.12,9.24,20.64,0-66.18-6.3-39.63-29.3,76.8,16.58,73.22L219,264.87l20.19,12.32,18.42-12.32,20.81,11.37L295,202.89l-38.57-97.82H216.08V87.25L194,65.2,239.27,20,284.52,65.2l-25,25H221.89v9h38.52l40.69,103.2-.07.3L282.39,285l-24.47-13.37-18.57,12.43L219,271.65Zm-16.65-82.59,18,79.46L219,269.32l20.32,12.39,18.52-12.39L281,282l18-79.42-40-101.36H219.89v-13h38.77l23-23L239.27,22.78,196.85,65.2l21.23,21.22v16.66h39.75l39.29,99.66-.07.3-17.26,76.24L257.72,267.2l-18.47,12.36L219,267.2l-20.25,12-17.32-76.49.11-.28,32.07-84.08,7.51,47.26,0,75.63-13.39-29.91L215,189.8v-5.71l-9.15,27.36L223,249.73V165.65l-7.88-49.56h-2ZM221.36,87.14,199.42,65.2l39.85-39.86L279.13,65.2,257.28,87l-7.64-21L239.27,77.73,228.75,66ZM202.24,65.2l18.28,18.27L228,62.14l11.28,12.59,11.11-12.58,7.72,21.26L276.3,65.2l-37-37Zm52.89,21.21h-31.6l5.91-16.92,9.84,11,9.7-11Zm-28.78-2h25.92l-4-11.08-9,10.14-9.08-10.13Z"/><path d="M239.27,313.35c-83.53,0-151.5-68-151.5-151.5s68-151.5,151.5-151.5,151.5,68,151.5,151.5S322.81,313.35,239.27,313.35Zm0-296c-79.67,0-144.5,64.82-144.5,144.5s64.83,144.5,144.5,144.5,144.5-64.83,144.5-144.5S319,17.35,239.27,17.35Z"/><path d="M428.83,157.17h7.93V150.6h-3.83c-1.89-4-6.68-17.57-6.68-51,0-30.84,17.58-62.71,27.28-77.93l.34,70.16h0v2.82L454,115h-.1v36.53l1.28,13.79h0c2.28,26.08,4.72,56.31,5.19,71.34.43,13.83-8.32,25.9-14.1,33.89-.95,1.31-1.81,2.49-2.56,3.59-1.16-1.79-2.5-3.71-3.93-5.75-6.47-9.25-14.53-20.77-13-31.15,1.77-12,4.28-40.86,6.38-67.08h-7c-2.09,26-4.56,54.42-6.27,66.06-1.94,13.13,7.38,26.46,14.19,36.19,2.27,3.25,9.58,14.49,9.58,14.49s6.77-10.12,8.27-12.2l5.6-8.06c5.21-8.08,10.23-18.34,9.86-30.19-.53-17.3-3.65-54.42-6.17-82.5L460.42,0l-6.24,8.23c-1.42,1.88-34.93,46.6-34.93,91.34,0,44,7.95,55.51,8.86,56.68Z"/><path d="M52.68,112.26V120c6.63-2.81,16.85-9,16.85-20.43,0-13.89-11-61.12-11-61.12l-5.83.38-6.8,57.24H44.55l-6-57.4-6.24,0-6.9,57.42H22.67L18.55,38.92l-6-.54S0,87.15,0,99.57c0,14.77,20.44,22,21.31,22.26l.41.14c-1.27,17.64-6.84,93.26-9.94,114.27C9.85,249.37,19.17,262.7,26,272.43c1.94,2.77,9.72,14.49,9.72,14.49s6.39-9.79,8.17-12.24c.83-1.16,1.73-2.39,2.64-3.7l2.61-3.85c5.32-8.15,10.55-18.58,10.17-30.66-.79-25.4-7.13-93.55-9-113h-7c1.75,18.48,8.22,87.74,9,113.23.43,13.83-8.32,25.9-14.1,33.89-1,1.31-1.81,2.49-2.56,3.59-1.16-1.79-2.5-3.71-3.93-5.75-6.47-9.25-14.53-20.77-13-31.15,3.2-21.72,8.8-98.21,10-115.24h0v-7H23.06C18.12,113.18,7,107.39,7,99.57c0-6,3.08-21,6.36-35.12L15.72,97a6.59,6.59,0,0,0,6.55,6.09h3.52a6.57,6.57,0,0,0,6.52-5.78l2.86-23.77,2.46,23.67a6.55,6.55,0,0,0,6.53,5.88h2.09a6.56,6.56,0,0,0,6.52-5.79l4.06-34.2c2.91,14.1,5.7,29.58,5.7,36.49C62.53,105.73,57.33,109.82,52.68,112.26Z"/></g></g></svg>