<svg xmlns="http://www.w3.org/2000/svg" viewBox="0 0 394.39 339.78"><g id="Layer_2" data-name="Layer 2"><g id="rose"><path d="M143.41,193.79c-15.59,0-34.89-9.15-50-16.31-6.89-3.27-13.4-6.35-16.3-6.82-3.46-.56-5.82-1.82-7.19-3.86-2.08-3.07-1.23-6.77-.42-10.35s1.67-7.34.32-11.2c-1.63-4.65-6.06-8.32-10.74-12.2-5.31-4.39-11.32-9.37-14.06-16.73C41.5,106.89,49.16,90.85,56.2,83.5c3.6-3.76,6.95-5.17,10-4.18,1.86.6,4.23,2.39,4.92,7.45,1.72,12.57,6.93,35.28,22.59,46.1,7.43,5.14,11.23,3.89,16,2.32,4-1.31,8.55-2.8,14.68-.43,5.8,2.25,12,8.7,17.93,15,4.08,4.28,12.51,13.11,14.89,12.09-.2-2.5-6.38-9.55-10.52-14.26-5.78-6.59-11.75-13.4-14.63-19.83-2.4-5.37-8.15-5.11-17.33-4.24-7.48.71-16,1.52-22.18-3.34C81,111.07,82.64,88.38,83.17,83.25,75.53,65.79,74.51,50.6,80,36.84c.73-2.48,7.56-23.91,24.44-24.33,8.11-.21,21.27-4.23,31.84-7.47,9.22-2.81,16.49-5,20.55-5,9.19,0,11.68,4.34,13.88,8.18l.27.47c.77-.35,1.85-1,2.7-1.44,4-2.25,10-5.64,16.25-3.18,24.26,9.49,33.48,15.8,32.91,22.51-.71,8.23-13.42,14.56-16,15.75l-2.19,1L203,41.63c-1.61-1.57-3.26-3.32-4.86-5-2.84-3-7.44-7.87-9.59-8.75v0c-2.67,6.65-11.26,8.14-18.84,9.46-3.46.6-7,1.22-9,2.21-7.54,3.84-19-4.18-22.94-7.24-13.31-.34-26.39,1.44-28,3.84-.28,5-2.92,7.78-5,10s-4,4.21-4,8.68c-.14,7.91,1.87,13.44,3.93,14.81.31.2,1,.67,2.72-.07,9.12-4,21.77-1.09,22.3-1l1.57.38.74,1.43c.95,1.85,9.15,18.36,5.23,27.75-1,2.38,3.16,6.4,6.84,9.94a54,54,0,0,1,7.32,8.09c.81-2.76,1.67-6.26,2.39-9.63-4.14-2.91-11.36-8.68-12-14a6.29,6.29,0,0,1,1.61-5.16c2-2.2,1.4-7.5.63-10.46-3.53-3.16-11.5-11.06-10.64-17.18a6.81,6.81,0,0,1,4.09-5.28A30.53,30.53,0,0,0,143,51.1c3.69-2.72,7.5-5.53,15.48-4.46S177.16,50.56,179.81,63c.6,2.85,3,4.38,6.51,6.39,3.22,1.83,8.09,4.6,6.5,10.09-1.5,5.16-7.46,6.65-12.72,8-2.68.67-6.35,1.58-7.23,2.7s1.13,6.17,4.18,10.06l.83,1.06-.09,1.34s-.28,5.39,2,14.86c.94,3.9,2.51,5.68,3.79,6.49,2.88-6.57,10.5-20.88,22.08-20.15,2,.13,2.31-.51,2.46-.81,1.55-3.22-1.87-12.71-5.27-16.46-4.08-4.51-4.41-9.16-4.73-13.65a48.28,48.28,0,0,0-.73-6.21c-.9-4.52-7.85-11-12-14L189.49,47c1.33,1,13,9.65,14.77,18.32a56,56,0,0,1,.84,7.08c.29,4.06.48,6.73,2.94,9.45,4.15,4.58,9.73,17.25,6.39,24.2-.93,1.93-3.37,5.12-9.21,4.75-7.56-.47-14.46,13.58-16.26,18.55l-.79,2.17-2.31.13c-.4,0-9.77.39-12.88-12.53a70.6,70.6,0,0,1-2.2-15.59c-2.42-3.34-7.87-12.07-3.39-17.72,2.35-3,6.75-4.08,11-5.14,2.69-.68,7.18-1.8,7.68-3.08a17.83,17.83,0,0,0-3.21-2.1c-3.63-2.06-8.6-4.89-9.91-11-1.39-6.54-5.71-9.59-15.42-10.9-5.18-.7-7.14.75-10.39,3.15A37.69,37.69,0,0,1,140.33,61l-.12.06c0,1.91,4.34,7.34,9.09,11.45l.74.64.31.94c.38,1.21,3.59,11.87-1.68,18,.52,1.93,5.6,6.68,10.86,10.08l2,1.29-.46,2.33c0,.19-1,4.89-2.23,9.68-2.42,9.22-4.14,12-7.35,12.12-1.33,0-3.65-.53-4.65-4.59-.73-3-4.27-6.42-7.69-9.72-5.28-5.1-11.27-10.89-8.43-17.68,1.86-4.45-1.39-14.24-4.27-20.35-3.26-.57-10.92-1.51-16.29.86a9.37,9.37,0,0,1-9.41-.5c-6.81-4.53-7.12-17-7.06-20.76.13-7.18,3.49-10.75,5.95-13.36,2-2.12,3-3.34,3.15-5.69.34-7.3,11.41-9.14,19.71-9.89a152.75,152.75,0,0,1,16.69-.46l1.18,0,.92.75c4.88,4,13.26,8.71,16.27,7.17s6.8-2.15,10.95-2.87c5.49-.95,12.33-2.14,13.54-5.16s3.36-4.17,4.9-4.47c5-1,10,4.31,16.29,11,1,1,1.93,2.05,2.89,3,4.45-2.45,9.47-6.26,9.78-8.83-.28-1.18-3.24-5.59-28.48-15.46-3.19-1.25-6.94.88-10.25,2.75s-8.57,4.86-11.55,0c-.33-.55-.64-1.1-.94-1.62C162.73,8.27,162,7,156.87,7c-3,0-10.88,2.41-18.5,4.74-11.55,3.53-24.64,7.54-33.71,7.76-12.37.31-17.89,19.24-17.94,19.44l-.13.36c-4.94,12.17-3.84,25.9,3.36,42l.41.9-.13,1c-.87,6.62-1.36,25.18,6.65,31.46,4,3.14,10.71,2.5,17.2,1.88,9.28-.88,19.81-1.88,24.38,8.35,2.45,5.47,8.32,12.16,13.5,18.07,8.31,9.47,13,15.07,12.18,20.18a6.46,6.46,0,0,1-3.19,4.64c-7,4.25-15.12-4.22-23.69-13.2-5.17-5.42-11-11.57-15.38-13.25-3.81-1.47-6.53-.58-10,.55-5.31,1.74-11.92,3.9-22.2-3.21C71.83,126.28,66,101.43,64.16,87.72a7.72,7.72,0,0,0-.34-1.51c-1.28.68-4,3.14-7.17,8.38-4.44,7.46-6.53,15.39-5.07,19.29,2.09,5.6,6.88,9.57,12,13.78s10.61,8.79,12.88,15.27c2,5.77.8,11.14-.09,15.07-.37,1.62-1,4.32-.61,4.88.1.15.74.58,2.5.87,3.89.63,10.2,3.62,18.18,7.4,17.7,8.39,44.44,21.07,57.52,13.15,12.17-7.37,21.49-4.6,27.66-2.76,2,.58,4,1.19,4.91,1,.7-.15,1.33-2.1,1.51-2.69,1.61-5.41-4.71-11.71-11.4-18.37-6.94-6.91-14.11-14.06-14.33-22.42,0-1.35-.14-5.47,3-7.33,3.65-2.12,8,.5,13.53,3.81,6.18,3.71,13.86,8.32,19.36,5.76,5.66-2.65,5.63-3.86,5.54-6.8-.11-3.31-.25-7.85,5.12-13.63,6.26-6.76,11.36-5.83,14.73-5.22,2.55.47,3.08.57,4.79-2.2,2.1-3.7-6-24.89-10.34-36.27-7.69-20.11-10.16-27.23-6.58-30.51.71-.65,2.7-2,5.85-.47,2.33,1.14,6,1.52,9.51,1.89,5.74.6,11.68,1.22,14.73,5.29a10.06,10.06,0,0,1,1.55,8.15c-2.16,12,2.3,19.81,7.46,28.87,4.79,8.4,10.22,17.92,10.22,31.71,0,16.43-9.8,23.48-21.14,31.65-9.33,6.72-20.93,15.08-31.26,31.24l-5.9-3.76c11-17.3,23.26-26.09,33.07-33.16,11-7.9,18.23-13.13,18.23-26,0-11.93-4.73-20.23-9.3-28.24-5.35-9.39-10.88-19.09-8.27-33.58a3.56,3.56,0,0,0-.26-2.71c-1.22-1.63-6-2.13-9.85-2.53a52,52,0,0,1-8.89-1.44c1.16,4.84,4.66,14,7.37,21.07,8.55,22.39,13.48,36.43,9.75,42.45-4.22,6.83-8.9,6-12,5.41-2.73-.5-4.7-.85-8.35,3.09-3.41,3.68-3.34,6-3.26,8.66.15,4.79-.47,9.1-9.57,13.35-8.87,4.14-18.72-1.78-25.92-6.1a54.2,54.2,0,0,0-6-3.28c0,.18,0,.38,0,.62.14,5.56,6.31,11.7,12.27,17.64,7.85,7.82,16,15.9,13.17,25.32-.48,1.62-1.94,6.52-6.77,7.54-2.65.57-5.3-.22-8.36-1.13-5.58-1.66-12.52-3.73-22,2A26.83,26.83,0,0,1,143.41,193.79Z"/><path d="M28.24,339.78l-3-45.14L0,281.49l29.35-18.8-26.91-14L33.27,229l-30.83-16,61.42-39.35,2,2a11.1,11.1,0,0,0,6.23,2.73c2.7.44,8.2,3,16.29,6.81,2.65,1.26,5.43,2.58,8.28,3.89l3.31,1.52-1.66,3.25c-16.93,33.19-26.7,52.51-29,57.42a29.1,29.1,0,0,0-3.16,13.07,28.65,28.65,0,0,0,9.4-9.89c2.05-3.83,12.31-23.94,29.65-58.14l1.44-2.84,3,1.17c10.78,4.26,19.64,6.48,27.06,6.8l3.2.13,4.09,85-31.59-16.42,1.77,36.7L87.76,293.06,89.44,328,64.76,315.17ZM14,280.86l18,9.39,2.42,36.92L64.3,307l17.57,9.13-1.69-34.93,26.32,13.68-1.76-36.7,31.58,16.42-3.2-66.56c-6.74-.68-14.37-2.63-23.16-5.91-16.73,33-26.25,51.64-28.3,55.47C76.12,268,65.3,272.75,64.84,273l-3.32,1.43L60.2,271c-.16-.39-3.63-9.55,2.74-22.89,2.29-4.79,11.53-23.07,27.48-54.35l-5-2.37c-5-2.37-12.5-5.93-14.41-6.24a19.57,19.57,0,0,1-7.8-2.84l-46.77,30,30.83,16L16.4,248.07l26.91,14Z"/><path d="M327.47,133.48,270,115.83l-.18-2.38c-.78-10.85-4.87-18.83-9.35-26.73l-2.31-4.06,4.55-1.07c29.77-7,47.8-11.33,52.12-12.47A24.58,24.58,0,0,0,323.73,65a22.61,22.61,0,0,0-9.94-.34c-3.62.77-22.7,5.27-55.15,13l-2.87.69-1.16-2.71a31.43,31.43,0,0,1-2.29-19,10.49,10.49,0,0,0-1-7.36l-1.41-2.42L297.62,2.25l6.56,28.85,22.33-20.85,5.47,24,21.24-19.84,5.28,23.2,35.89,10.12L366.86,74.4l5.4,23.76-27.69-8.5,5.59,24.59-29.1-8.94ZM276.6,110.53,318,123.24l-6.41-28.17,29.1,8.93-5.59-24.58,27.7,8.5-3.6-15.82,21.61-20.89L352.6,43.27l-3.5-15.39L327.85,47.73l-5.47-24L300.06,44.53,293.5,15.67,258.55,48.31a18.27,18.27,0,0,1,.66,9.54A23.72,23.72,0,0,0,260,70.09c31.11-7.4,48.71-11.55,52.32-12.33,9.74-2.09,18.76,2.3,19.13,2.49l3.24,1.6L333,65c-.17.31-4.23,7.66-16.36,10.85-4.22,1.11-20.29,5-47.8,11.45C272.37,94,275.54,101.36,276.6,110.53Z"/></g></g></svg>