<svg xmlns="http://www.w3.org/2000/svg" viewBox="0 0 104.01 320.35"><g id="Layer_2" data-name="Layer 2"><g id="Layer_1-2" data-name="Layer 1"><path d="M90.76,262.43H13.25V148.91H90.76Zm-73.51-4H86.76V152.91H17.25Z"/><path d="M43.53,186.52l-.24-.36-.37-.61a6.53,6.53,0,0,0-.37-.61,1.76,1.76,0,0,0-.27-.37s0,0-.05,0l-.25-.05-.63-.05H40.23l-.48-.13a4.45,4.45,0,0,1-.7-.24,4.92,4.92,0,0,1-.65-.32c-.19-.12-.28-.24-.28-.37a.66.66,0,0,1,.25-.59c.17-.12.39-.27.64-.47a1.23,1.23,0,0,1,.64-.22l1.19.06.42-.25.3-.18a.63.63,0,0,1,.21-.08,14.44,14.44,0,0,1,1.46-.21l1.87-.13c.66,0,1.31,0,1.94,0h1.62a8.1,8.1,0,0,1,1.39.08,3,3,0,0,1,1,.36l1.56-.11c.5,0,1,0,1.49,0s.85,0,1.28,0l1.22.06a2.61,2.61,0,0,0,.8.31,7.53,7.53,0,0,0,.83.11l.83.08a4.05,4.05,0,0,1,.8.17l4.23,2.12a.67.67,0,0,0,.24.08l.45.11.45.11a1,1,0,0,1,.24.08,1.88,1.88,0,0,1,.63.34,2.09,2.09,0,0,1,.41.48c.12.18.23.36.34.55a3.63,3.63,0,0,0,.38.52,36.11,36.11,0,0,1,2.3,2.79,9.06,9.06,0,0,1,1.49,3.3s0,.13,0,.26,0,.27,0,.43,0,.31,0,.45,0,.22.07.24a2.24,2.24,0,0,0,.3.71l.42.64a4.45,4.45,0,0,1,.35.64,1.7,1.7,0,0,1,.14.73,5.76,5.76,0,0,1,0,.66,2.31,2.31,0,0,1-.12.56,2.87,2.87,0,0,1,.16.37,1.61,1.61,0,0,0,.16.31,10.62,10.62,0,0,1,.21,1.07,6.35,6.35,0,0,1,.08,1.07,7.12,7.12,0,0,1-.08,1.12,10.25,10.25,0,0,1-.21,1.13,3.23,3.23,0,0,1,.08.51c0,.13,0,.25,0,.37a1.9,1.9,0,0,1,0,.21v.06a5.26,5.26,0,0,1-.24,1.55,13.49,13.49,0,0,1-.57,1.54c-.23.5-.47,1-.72,1.49s-.49,1-.68,1.41l-.38,1a9.91,9.91,0,0,1-.71,1.49,15.75,15.75,0,0,1-1,1.55c-.37.51-.75,1-1.13,1.49l-1.09,1.33-2.31,2.72a11.12,11.12,0,0,1-2.72,2.34,1.2,1.2,0,0,1-.42.15l-.42.08-2.5,1.38a6.86,6.86,0,0,1-1.95.51,17,17,0,0,0-2.05.32l-1.45.7-.38,0-.67.06-.66.08-.34.05c-1.34.15-2.73.35-4.15.61a25.19,25.19,0,0,1-4.37.38l-.87,0-1.28-.06-1.26-.07-.79,0a2.28,2.28,0,0,0-1-.45,7,7,0,0,0-1-.06,6,6,0,0,0-1.35.14c-.43.1-.84.2-1.25.32s-.8.23-1.18.32a4.62,4.62,0,0,1-1.16.15,2.35,2.35,0,0,1-.82-.18,4.7,4.7,0,0,1-.89-.46,3.22,3.22,0,0,1-.74-.68,1.32,1.32,0,0,1-.31-.83v-.32a2.3,2.3,0,0,1,0-.45,3.14,3.14,0,0,1,.13-.4.32.32,0,0,1,.24-.21,7.75,7.75,0,0,1,3.27-1.35,3.82,3.82,0,0,0,2.12-1,6.36,6.36,0,0,0,1.37-1.84,12.2,12.2,0,0,0,.9-2.27c.24-.81.46-1.55.67-2.23q.26-.74.6-1.56a5.67,5.67,0,0,0,.4-1.61,2.82,2.82,0,0,0,.13-.76c0-.22,0-.43,0-.64a2,2,0,0,1,.13-.62,2.12,2.12,0,0,1,.46-.71,16.85,16.85,0,0,1,.34-2.35,13.17,13.17,0,0,1,.69-2.29,3.47,3.47,0,0,1,.35-1l.53-1c.18-.34.35-.69.5-1A3.88,3.88,0,0,0,41.1,200c0-.47.07-1,.08-1.47s0-1,.06-1.54.09-1,.16-1.52a8,8,0,0,1,.37-1.46c.17-.58.36-1.15.56-1.71s.39-1.14.58-1.72a17.16,17.16,0,0,0,.45-1.78,10.49,10.49,0,0,0,.17-1.87Zm-1.44,33.14a2.71,2.71,0,0,1,.16.32c.09.19.19.43.3.71l.36.83c.11.28.22.51.3.7a1,1,0,0,0,.47.52,5.84,5.84,0,0,0,.83.41,8.66,8.66,0,0,0,1,.34l.89.24a2.31,2.31,0,0,1,.48.1l.13,0a.75.75,0,0,0,.26,0,2.67,2.67,0,0,0,1.15-.26,6,6,0,0,0,1.12-.64c.37-.25.71-.52,1-.8a7.11,7.11,0,0,1,1-.7,1,1,0,0,0,.24,0,3.39,3.39,0,0,0,.39-.08l.38-.09.24-.05c.3-.21.63-.48,1-.78s.72-.64,1.09-1,.7-.68,1-1,.6-.64.84-.92a.66.66,0,0,0,.19-.38c0-.15,0-.3,0-.46a1.85,1.85,0,0,1,.08-.47.65.65,0,0,1,.28-.38,4.33,4.33,0,0,0,.84-.56,3,3,0,0,0,.46-.58A4.13,4.13,0,0,0,59,214a5.37,5.37,0,0,1,.38-.85c.11-.13.27-.37.5-.71l.7-1.07c.25-.38.49-.73.72-1.06a4.19,4.19,0,0,1,.55-.66c.3-.87.59-1.8.86-2.78a18.88,18.88,0,0,0,.58-2.82,1.08,1.08,0,0,1,.18-.49l.29-.43c.09-.14.18-.28.25-.41a.87.87,0,0,0,.11-.44c.09-.64.16-1.27.23-1.89s.09-1.2.09-1.76a12,12,0,0,0-.09-1.51c-.07-.47-.14-.91-.23-1.34,0-.11-.1-.28-.17-.5l-.27-.75-.33-.93c-.1-.3-.19-.54-.25-.71a1.15,1.15,0,0,1-.1-.35c0-.08,0-.18-.06-.29v-1.22c0-.06-.19-.31-.43-.75l-.79-1.41c-.28-.5-.54-.95-.79-1.36a2.75,2.75,0,0,0-.43-.64,6.33,6.33,0,0,0-1.23-1.59,17,17,0,0,0-1.43-1.14,1.63,1.63,0,0,0-.93-.38H55.74a5.52,5.52,0,0,1-.77-.27l-.85-.37a8.44,8.44,0,0,0-.88-.34,2.89,2.89,0,0,0-.83-.14,1.24,1.24,0,0,0-.82.21,1,1,0,0,0-.32.51,4.22,4.22,0,0,0-.1.69,2,2,0,0,1-.14.7,1.41,1.41,0,0,1-.14.45l-.18.39c0,.06-.05.2-.1.41s-.09.45-.14.71-.1.5-.13.72-.05.37-.05.43a1.39,1.39,0,0,0,0,.39c0,.15,0,.32,0,.53s0,.32,0,.36a1,1,0,0,0-.12.37,2.11,2.11,0,0,0-.07.47,1.65,1.65,0,0,0-.13.24q-.09.21-.21.45l-.19.46a1.46,1.46,0,0,0-.08.29v2a.54.54,0,0,1-.09.16l-.23.28a2.47,2.47,0,0,1-.24.29.6.6,0,0,0-.11.16l-.06.15s0,.1-.07.14l-.1.19c-.42,1.8-.89,3.55-1.39,5.24s-.94,3.45-1.33,5.24l-.83,2a4.86,4.86,0,0,0-.13.81c0,.25,0,.51,0,.76s0,.52-.06.77a2.68,2.68,0,0,1-.21.77c-.21.64-.42,1.2-.61,1.67s-.37.93-.53,1.38a11.77,11.77,0,0,0-.41,1.42,14.08,14.08,0,0,0-.28,1.85,2.52,2.52,0,0,1-.37,1.13,2.07,2.07,0,0,0-.3,1.08Z"/><path d="M73.69,105.62V72.38H40.35V69H73.69V27.8a4.78,4.78,0,0,0,3.6-4.63V12.65A4.78,4.78,0,0,0,73.69,8V0H33.43l-.19,8a4.75,4.75,0,0,0-3.49,4.6V23.13a4.78,4.78,0,0,0,3.41,4.58V52h7V20.73l-3.41.11V14.77l3.33-.11L40.26,7H66.69v7.87h3.6V21h-3.6V62H33.35V79.38H66.69v30.24l1.77,1c.29.17,28.55,16.58,28.55,40.29V313.35H7V150.91c0-24.31,30.65-40.56,31-40.72l1.82-1,.56-19.91h-7L32.9,105C25.67,109.18,0,125.83,0,150.91V320.35H104V150.91C104,126.65,80.47,109.93,73.69,105.62Z"/></g></g></svg>