<svg xmlns="http://www.w3.org/2000/svg" viewBox="0 0 203.12 320.35"><g id="Layer_2" data-name="Layer 2"><g id="Layer_1-2" data-name="Layer 1"><path d="M111.45,144.51l-22.18,0c-2.31-.43-56.64-10.78-56.64-41.55,0-7.75,2.1-17.24,6.23-28.22l.48-1.29H161.89l.5,1.27c4.34,11.21,6.54,20.71,6.54,28.24,0,29.33-54.94,41-57.28,41.54Zm-21.62-4H111c3.55-.78,53.9-12.29,53.9-37.58,0-6.75-2-15.33-5.78-25.51h-117c-3.64,10-5.49,18.55-5.49,25.51C36.63,129.6,86.48,139.86,89.83,140.51Z"/><path d="M81.49,287.25v.05c-37.77.45-63.73,9.67-77.22,27.43L0,320.35H203.12l-6.17-6c-18-17.54-43.52-26.36-77.85-27V169.29c14.55-3.42,78.91-20.74,78.91-58.88,0-40.33-43.7-106.08-45.56-108.86l-1-1.55H132V7h.25l7.68,12.93c6,9.24,36.23,57.48,36.23,86.45S117.87,149,112.88,150.06h-25c-4.7-.93-62.41-13-62.41-43.68,0-30.45,29.85-77.42,35.79-86.45L69.77,7h.06V0H49.67l-1,1.53C46.79,4.22,3.55,68.06,3.55,110.41c0,39.92,63.35,55.81,77.94,58.94v107h7V170h0v-7H85.33c-5.19-1-74.78-15.48-74.78-52.58C10.55,73.69,46.8,17,53.39,7h8.49l-5.44,7.45c-1.55,2.28-38,56.13-38,91.93,0,37.6,65.65,50.11,68.44,50.63l.32.05h26.43L114,157c2.83-.59,69.18-14.75,69.18-50.61,0-34.1-36.86-89.56-38.43-91.9L139.62,7h8C154.28,17.23,191,75.48,191,110.41c0,35.16-70.26,51.36-75.78,52.58h-3.14v7h0V287.28h0v7h3.5c29.84.07,52.69,6.32,69.49,19.07H14.94c13.7-12.74,37.23-19.14,70.05-19.07H88.5v-7h0v0Z"/></g></g></svg>